<svg width="134" height="22" viewBox="0 0 134 22" fill="none" xmlns="http://www.w3.org/2000/svg">
<path d="M17.0183 12.0322L12.379 19.9777L7.7398 12.0322H17.0183ZM18.2611 11.322H6.49194L12.379 21.3831L18.2611 11.322Z" fill="white"/>
<path d="M25.0843 2.14975L29.7235 10.0953H20.445L25.0843 2.14975ZM25.0843 0.729492L19.1971 10.7905H30.9713L25.0843 0.729492Z" fill="white"/>
<path d="M0.85144 0.729492L5.78757 9.62848L11.1815 0.952948L0.85144 0.729492Z" fill="#4CAF4F"/>
<path d="M12.3792 1.50903L17.5569 10.3584H7.19153L12.3792 1.50903Z" fill="#4CAF4F"/>
<path d="M18.8903 12.2904L24.073 21.3831H13.4611L18.7293 12.2904H18.8903Z" fill="#4CAF4F"/>
<path d="M20.0122 11.7391L25.0842 20.6927L30.2266 11.7391H20.0122Z" fill="#4CAF4F"/>
<path d="M52.5136 2.16577V19.69H49.3133L41.6893 8.66036H41.5609V19.69H37.8558V2.16577H41.1074L48.6716 13.1869H48.8256V2.16577H52.5136Z" fill="white"/>
<path d="M61.496 19.9467C60.1441 19.9467 58.9804 19.6729 58.0049 19.1253C57.0351 18.5719 56.2878 17.7904 55.763 16.7807C55.2382 15.7653 54.9758 14.5645 54.9758 13.1783C54.9758 11.8264 55.2382 10.6398 55.763 9.61872C56.2878 8.59761 57.0266 7.80183 57.9792 7.23138C58.9376 6.66093 60.0614 6.3757 61.3506 6.3757C62.2177 6.3757 63.0249 6.51546 63.7722 6.79498C64.5251 7.0688 65.1812 7.48238 65.7402 8.03572C66.305 8.58905 66.7442 9.285 67.0579 10.1236C67.3717 10.9564 67.5286 11.9319 67.5286 13.05V14.0511H56.4304V11.7921H64.0973C64.0973 11.2673 63.9832 10.8024 63.755 10.3974C63.5269 9.99236 63.2103 9.67576 62.8052 9.44758C62.4059 9.2137 61.941 9.09676 61.4105 9.09676C60.8571 9.09676 60.3666 9.22511 59.9387 9.48181C59.5166 9.73281 59.1857 10.0722 58.9461 10.5001C58.7065 10.9222 58.5839 11.3928 58.5782 11.9119V14.0597C58.5782 14.71 58.698 15.2719 58.9376 15.7454C59.1829 16.2188 59.528 16.5839 59.9729 16.8406C60.4179 17.0973 60.9456 17.2257 61.5559 17.2257C61.961 17.2257 62.3318 17.1686 62.6683 17.0545C63.0049 16.9405 63.293 16.7693 63.5326 16.5411C63.7721 16.313 63.9547 16.0334 64.0802 15.7026L67.4516 15.9251C67.2804 16.7351 66.9296 17.4425 66.3991 18.0471C65.8743 18.6461 65.1954 19.1139 64.3626 19.4504C63.5354 19.7813 62.5799 19.9467 61.496 19.9467Z" fill="white"/>
<path d="M72.7183 6.54684L75.1313 11.1418L77.6042 6.54684H81.3435L77.5357 13.1184L81.4462 19.69H77.724L75.1313 15.1464L72.5813 19.69H68.8164L72.7183 13.1184L68.9533 6.54684H72.7183Z" fill="white"/>
<path d="M88.9761 19.9467C87.6298 19.9467 86.4718 19.6615 85.5021 19.0911C84.538 18.5149 83.7964 17.7163 83.2773 16.6952C82.7639 15.6741 82.5072 14.4989 82.5072 13.1698C82.5072 11.8235 82.7668 10.6427 83.2859 9.62727C83.8107 8.60617 84.5551 7.81039 85.5192 7.23993C86.4832 6.66378 87.6298 6.3757 88.959 6.3757C90.1056 6.3757 91.1096 6.58392 91.971 7.00035C92.8324 7.41678 93.514 8.00149 94.016 8.75448C94.518 9.50748 94.7947 10.3917 94.8461 11.4071H91.4062C91.3093 10.7511 91.0526 10.2234 90.6361 9.82408C90.2254 9.41906 89.6863 9.21655 89.0189 9.21655C88.4542 9.21655 87.9607 9.37057 87.5386 9.67861C87.1221 9.98095 86.797 10.4231 86.5631 11.0049C86.3292 11.5868 86.2123 12.2913 86.2123 13.1184C86.2123 13.957 86.3264 14.6701 86.5545 15.2576C86.7884 15.8452 87.1164 16.293 87.5386 16.601C87.9607 16.9091 88.4542 17.0631 89.0189 17.0631C89.4353 17.0631 89.809 16.9775 90.1398 16.8064C90.4764 16.6353 90.7531 16.3871 90.9698 16.062C91.1923 15.7311 91.3378 15.3346 91.4062 14.8726H94.8461C94.789 15.8766 94.5152 16.7608 94.0246 17.5252C93.5397 18.2839 92.8694 18.8771 92.0138 19.305C91.1581 19.7328 90.1455 19.9467 88.9761 19.9467Z" fill="white"/>
<path d="M103.17 19.9467C101.818 19.9467 100.654 19.6729 99.6785 19.1253C98.7087 18.5719 97.9614 17.7904 97.4366 16.7807C96.9118 15.7653 96.6494 14.5645 96.6494 13.1783C96.6494 11.8264 96.9118 10.6398 97.4366 9.61872C97.9614 8.59761 98.7002 7.80183 99.6528 7.23138C100.611 6.66093 101.735 6.3757 103.024 6.3757C103.891 6.3757 104.698 6.51546 105.446 6.79498C106.199 7.0688 106.855 7.48238 107.414 8.03572C107.979 8.58905 108.418 9.285 108.732 10.1236C109.045 10.9564 109.202 11.9319 109.202 13.05V14.0511H98.104V11.7921H105.771C105.771 11.2673 105.657 10.8024 105.429 10.3974C105.2 9.99236 104.884 9.67576 104.479 9.44758C104.08 9.2137 103.615 9.09676 103.084 9.09676C102.531 9.09676 102.04 9.22511 101.612 9.48181C101.19 9.73281 100.859 10.0722 100.62 10.5001C100.38 10.9222 100.257 11.3928 100.252 11.9119V14.0597C100.252 14.71 100.372 15.2719 100.611 15.7454C100.856 16.2188 101.202 16.5839 101.647 16.8406C102.091 17.0973 102.619 17.2257 103.23 17.2257C103.635 17.2257 104.005 17.1686 104.342 17.0545C104.678 16.9405 104.967 16.7693 105.206 16.5411C105.446 16.313 105.628 16.0334 105.754 15.7026L109.125 15.9251C108.954 16.7351 108.603 17.4425 108.073 18.0471C107.548 18.6461 106.869 19.1139 106.036 19.4504C105.209 19.7813 104.254 19.9467 103.17 19.9467Z" fill="white"/>
<path d="M115.226 12.0916V19.69H111.581V6.54684H115.055V8.86572H115.209C115.5 8.10132 115.988 7.49664 116.672 7.05169C117.357 6.60103 118.187 6.3757 119.162 6.3757C120.075 6.3757 120.871 6.57536 121.55 6.97468C122.228 7.37399 122.756 7.94444 123.133 8.68603C123.509 9.42191 123.697 10.3004 123.697 11.3215V19.69H120.052V11.9718C120.058 11.1675 119.853 10.54 119.436 10.0893C119.02 9.63298 118.446 9.4048 117.716 9.4048C117.226 9.4048 116.792 9.51033 116.416 9.7214C116.045 9.93247 115.754 10.2405 115.543 10.6455C115.337 11.0448 115.232 11.5269 115.226 12.0916Z" fill="white"/>
<path d="M133.561 6.54684V9.285H125.646V6.54684H133.561ZM127.443 3.39795H131.088V15.6512C131.088 15.9878 131.14 16.2502 131.242 16.4385C131.345 16.621 131.488 16.7494 131.67 16.8235C131.858 16.8977 132.075 16.9348 132.32 16.9348C132.492 16.9348 132.663 16.9205 132.834 16.892C133.005 16.8577 133.136 16.8321 133.227 16.815L133.801 19.5275C133.618 19.5845 133.361 19.6501 133.031 19.7243C132.7 19.8041 132.298 19.8526 131.824 19.8697C130.946 19.904 130.176 19.787 129.514 19.5189C128.858 19.2508 128.347 18.8344 127.982 18.2696C127.617 17.7049 127.437 16.9918 127.443 16.1304V3.39795Z" fill="white"/>
</svg>
