<svg width="35" height="34" viewBox="0 0 35 34" fill="none" xmlns="http://www.w3.org/2000/svg">
<g id="Icon" clip-path="url(#clip0_211_2332)">
<path id="Vector" d="M33.1456 27.0625L33.1457 27.0625C33.2769 26.9715 33.3888 26.8553 33.4747 26.7207L33.768 26.908L33.4747 26.7207C33.5607 26.5861 33.619 26.4357 33.6463 26.2784C33.6736 26.121 33.6694 25.9598 33.6339 25.8041L33.9732 25.7267L33.6339 25.8041C33.5983 25.6484 33.5322 25.5013 33.4393 25.3714L33.4378 25.3692C32.1307 23.5113 30.3498 22.0374 28.2801 21.1008L27.7754 20.8724L28.2002 20.5168C29.46 19.4624 30.3642 18.0452 30.7897 16.4584C31.2153 14.8716 31.1414 13.1922 30.5782 11.6489C30.015 10.1056 28.9898 8.77331 27.6423 7.83352C26.2948 6.89373 24.6904 6.39206 23.0475 6.39684L23.0459 6.39684C22.3148 6.39562 21.5871 6.49658 20.8839 6.69677L20.8777 6.69855L20.8776 6.69849C20.7215 6.73982 20.5751 6.81181 20.447 6.91027C20.3189 7.00872 20.2116 7.13168 20.1315 7.27197C20.0514 7.41227 20 7.56711 19.9802 7.72746C19.9605 7.88782 19.9729 8.0505 20.0167 8.20602C20.0604 8.36155 20.1347 8.50681 20.2352 8.63336L19.9625 8.84973L20.2352 8.63336C20.3356 8.75991 20.4602 8.86521 20.6017 8.94314L20.4339 9.24801L20.6017 8.94314C20.7433 9.02106 20.8989 9.07006 21.0595 9.08727C21.2202 9.10447 21.3826 9.08955 21.5375 9.04337L21.5415 9.04218L21.5415 9.0422C22.0311 8.90251 22.5379 8.83212 23.0471 8.83308M33.1456 27.0625L23.0465 9.18112M33.1456 27.0625L33.1416 27.0654C32.9384 27.2106 32.6948 27.2883 32.445 27.2876C32.2497 27.2864 32.0575 27.2388 31.8842 27.1486C31.711 27.0585 31.5617 26.9284 31.4487 26.7693M33.1456 27.0625L31.1644 26.97M23.0471 8.83308L23.0465 9.18112M23.0471 8.83308C23.0469 8.83308 23.0467 8.83308 23.0465 8.83308V9.18112M23.0471 8.83308C24.5238 8.83325 25.9399 9.41992 26.984 10.4641C28.0284 11.5084 28.615 12.9248 28.615 14.4016C28.615 15.8785 28.0284 17.2949 26.984 18.3392C25.9397 19.3835 24.5234 19.9702 23.0465 19.9702C22.7234 19.9702 22.4136 20.0985 22.1851 20.327C21.9567 20.5554 21.8284 20.8652 21.8284 21.1883C21.8284 21.5114 21.9567 21.8212 22.1851 22.0497C22.4136 22.2781 22.7234 22.4064 23.0465 22.4064H23.0469C24.6943 22.4082 26.3172 22.8054 27.7793 23.5647C29.2412 24.3239 30.4996 25.4228 31.4487 26.7693M23.0465 9.18112C24.4311 9.18112 25.7589 9.73113 26.7379 10.7102C27.717 11.6892 28.267 13.0171 28.267 14.4016C28.267 15.7862 27.717 17.1141 26.7379 18.0931C25.7589 19.0721 24.4311 19.6222 23.0465 19.6222C22.6311 19.6222 22.2328 19.7872 21.939 20.0809C21.6453 20.3746 21.4803 20.7729 21.4803 21.1883C21.4803 21.6037 21.6453 22.002 21.939 22.2958C22.2328 22.5895 22.6311 22.7545 23.0465 22.7545C24.6382 22.7562 26.2063 23.14 27.6189 23.8736C29.0315 24.6071 30.2474 25.669 31.1644 26.97M31.4487 26.7693C31.4485 26.7691 31.4484 26.7689 31.4483 26.7687L31.1644 26.97M31.4487 26.7693C31.4487 26.7693 31.4488 26.7694 31.4489 26.7695L31.1644 26.97M17.5628 20.5174L17.14 20.873L17.6433 21.1008C19.7129 22.0374 21.4939 23.5113 22.801 25.3692L22.806 25.3763L22.8113 25.3831C22.9128 25.5132 22.9869 25.6626 23.0289 25.8221C23.071 25.9817 23.0802 26.1482 23.056 26.3114C23.0318 26.4746 22.9746 26.6312 22.8881 26.7717C22.8015 26.9122 22.6873 27.0336 22.5523 27.1286C22.4174 27.2236 22.2646 27.2902 22.1031 27.3244C21.9417 27.3585 21.775 27.3595 21.6131 27.3273C21.4513 27.2951 21.2977 27.2303 21.1616 27.1369C21.0256 27.0435 20.9099 26.9234 20.8217 26.784L20.8172 26.7769L20.8124 26.7701C19.8653 25.421 18.6072 24.3199 17.1447 23.5597C15.6821 22.7995 14.058 22.4027 12.4097 22.4027C10.7613 22.4027 9.13725 22.7995 7.67468 23.5597C6.21212 24.3199 4.95408 25.421 4.00692 26.7701L4.00614 26.7712C3.8948 26.9311 3.74634 27.0616 3.5735 27.1515C3.40066 27.2415 3.20858 27.2882 3.01373 27.2876L3.0116 27.2876C2.7617 27.2884 2.51787 27.2107 2.31457 27.0654L2.3129 27.0642C2.04938 26.8782 1.87041 26.5952 1.81522 26.2775C1.76005 25.9598 1.8331 25.6331 2.01835 25.3692C3.32545 23.5113 5.1064 22.0374 7.17602 21.1008L7.67933 20.873L7.25658 20.5174C6.00015 19.4604 5.09913 18.0427 4.67568 16.4563C4.25222 14.87 4.32681 13.1918 4.88934 11.6493C5.45187 10.1068 6.47512 8.77457 7.82036 7.83325C9.16561 6.89192 10.7678 6.38704 12.4097 6.38704C14.0516 6.38704 15.6537 6.89192 16.999 7.83325C18.3442 8.77457 19.3675 10.1068 19.93 11.6493C20.4925 13.1918 20.5671 14.87 20.1437 16.4563C19.7202 18.0427 18.8192 19.4604 17.5628 20.5174ZM7.77958 11.3079C7.1677 12.2237 6.84111 13.3003 6.84111 14.4016C6.84111 15.8785 7.4278 17.2949 8.47211 18.3392C9.51641 19.3835 10.9328 19.9702 12.4097 19.9702C13.511 19.9702 14.5876 19.6436 15.5034 19.0317C16.4191 18.4198 17.1329 17.5502 17.5543 16.5326C17.9758 15.5151 18.0861 14.3955 17.8712 13.3153C17.6564 12.2351 17.126 11.2428 16.3472 10.4641C15.5685 9.6853 14.5762 9.15494 13.496 8.94008C12.4158 8.72521 11.2962 8.83549 10.2787 9.25696C9.26115 9.67843 8.39146 10.3922 7.77958 11.3079Z" fill="#4CAF4F" stroke="#4CAF4F" stroke-width="0.696069"/>
</g>
<defs>
<clipPath id="clip0_211_2332">
<rect width="33.4113" height="33.4113" fill="white" transform="translate(0.924561 0.306213)"/>
</clipPath>
</defs>
</svg>
