<svg width="34" height="34" viewBox="0 0 34 34" fill="none" xmlns="http://www.w3.org/2000/svg">
<g id="Icon">
<path id="Vector" d="M4.13269 11.6341V11.9822H4.48073H29.5392H29.8873V11.6341V10.068C29.8873 9.28337 29.5756 8.53092 29.0208 7.97613C28.466 7.42134 27.7136 7.10967 26.929 7.10967H7.09099C6.3064 7.10967 5.55394 7.42134 4.99916 7.97613C4.44437 8.53092 4.13269 9.28337 4.13269 10.068V11.6341ZM29.8873 13.7223V13.3743H29.5392H4.48073H4.13269V13.7223V23.6413C4.13269 24.4259 4.44437 25.1784 4.99916 25.7331C5.55394 26.2879 6.3064 26.5996 7.09099 26.5996H26.929C27.7136 26.5996 28.466 26.2879 29.0208 25.7331C29.5756 25.1784 29.8873 24.4259 29.8873 23.6413V13.7223ZM2.74055 10.068C2.74055 8.91415 3.1989 7.8076 4.01476 6.99174C4.83063 6.17587 5.93718 5.71753 7.09099 5.71753H26.929C28.0828 5.71753 29.1893 6.17587 30.0052 6.99174C30.8211 7.8076 31.2794 8.91415 31.2794 10.068V23.6413C31.2794 24.7951 30.8211 25.9017 30.0052 26.7175C29.1893 27.5334 28.0828 27.9918 26.929 27.9918H7.09099C5.93718 27.9918 4.83063 27.5334 4.01476 26.7175C3.1989 25.9017 2.74055 24.7951 2.74055 23.6413V10.068ZM22.2305 20.335H25.3628C25.5474 20.335 25.7245 20.4083 25.855 20.5389C25.9855 20.6694 26.0589 20.8464 26.0589 21.0311C26.0589 21.2157 25.9855 21.3927 25.855 21.5233C25.7245 21.6538 25.5474 21.7271 25.3628 21.7271H22.2305C22.0459 21.7271 21.8688 21.6538 21.7383 21.5233C21.6078 21.3927 21.5344 21.2157 21.5344 21.0311C21.5344 20.8464 21.6078 20.6694 21.7383 20.5389C21.8688 20.4083 22.0459 20.335 22.2305 20.335Z" fill="#4CAF4F" stroke="#4CAF4F" stroke-width="0.696069"/>
</g>
</svg>
