<svg width="23" height="23" viewBox="0 0 23 23" fill="none" xmlns="http://www.w3.org/2000/svg">
<g id="Social Icons">
<path id="BG" opacity="0.1" fill-rule="evenodd" clip-rule="evenodd" d="M0.262817 11.7743C0.262817 5.62346 5.24907 0.637207 11.3999 0.637207C17.5508 0.637207 22.537 5.62346 22.537 11.7743C22.537 17.9252 17.5508 22.9114 11.3999 22.9114C5.24907 22.9114 0.262817 17.9252 0.262817 11.7743Z" fill="white"/>
<path id="Path" fill-rule="evenodd" clip-rule="evenodd" d="M17.3397 11.766C17.3397 12.1677 17.2988 12.5689 17.2184 12.9599C17.1401 13.3416 17.0241 13.7164 16.8721 14.0746C16.7236 14.4266 16.5395 14.7657 16.3242 15.082C16.1122 15.3962 15.868 15.6911 15.5997 15.9598C15.3308 16.2274 15.035 16.471 14.7209 16.6839C14.4036 16.8976 14.064 17.0815 13.7118 17.2307C13.3531 17.3819 12.9774 17.4977 12.596 17.5759C12.2045 17.6565 11.8019 17.6976 11.3996 17.6976C10.997 17.6976 10.5945 17.6565 10.2035 17.5759C9.82149 17.4977 9.44588 17.3819 9.08738 17.2307C8.73528 17.0815 8.39533 16.8976 8.07803 16.6839C7.76391 16.471 7.46807 16.2274 7.19978 15.9598C6.93121 15.6911 6.68698 15.3962 6.47467 15.082C6.26061 14.7657 6.07613 14.4265 5.92706 14.0746C5.77506 13.7164 5.65877 13.3416 5.58016 12.9599C5.5007 12.5689 5.46008 12.1677 5.46008 11.766C5.46008 11.364 5.50068 10.962 5.58019 10.5719C5.65879 10.1901 5.77508 9.8148 5.92708 9.45712C6.07616 9.10494 6.26064 8.76551 6.47469 8.44922C6.687 8.1347 6.93123 7.84042 7.1998 7.57136C7.46809 7.30373 7.76394 7.06076 8.07805 6.84817C8.39536 6.63355 8.7353 6.44966 9.08741 6.3002C9.44591 6.14869 9.82149 6.03257 10.2035 5.95496C10.5945 5.87503 10.9971 5.83447 11.3996 5.83447C11.8019 5.83447 12.2045 5.87503 12.596 5.95496C12.9774 6.03259 13.3531 6.14872 13.7119 6.3002C14.064 6.44963 14.4036 6.63355 14.7209 6.84817C15.035 7.06076 15.3309 7.30373 15.5997 7.57136C15.868 7.84042 16.1123 8.1347 16.3243 8.44922C16.5395 8.76551 16.7236 9.10497 16.8721 9.45712C17.0241 9.8148 17.1401 10.1901 17.2184 10.5719C17.2988 10.962 17.3397 11.364 17.3397 11.766ZM9.23527 7.18442C7.82072 7.85144 6.76496 9.15301 6.43575 10.7216C6.56948 10.7228 8.68332 10.7494 11.1188 10.1033C10.2409 8.54565 9.30286 7.27451 9.23527 7.18442ZM11.5391 10.8833C8.92725 11.6641 6.42096 11.6079 6.33106 11.6044C6.3296 11.6589 6.32699 11.7116 6.32699 11.766C6.32699 13.0673 6.81861 14.2536 7.62668 15.1506C7.62493 15.148 9.01311 12.6888 11.7505 11.8048C11.8166 11.7828 11.884 11.7631 11.9507 11.744C11.8233 11.4561 11.6844 11.1677 11.5391 10.8833ZM14.7496 7.96439C13.8565 7.17804 12.6839 6.70105 11.3996 6.70105C10.9874 6.70105 10.5875 6.75087 10.2043 6.84297C10.2803 6.94493 11.2331 8.20711 12.1006 9.79771C14.0146 9.08119 14.7371 7.98291 14.7496 7.96439ZM12.2964 12.5833C12.2851 12.5871 12.2738 12.5903 12.2628 12.5944C9.26987 13.6362 8.2925 15.7359 8.28192 15.7588C9.14308 16.4275 10.2232 16.831 11.3996 16.831C12.1021 16.831 12.7712 16.6882 13.38 16.4296C13.3049 15.987 13.0102 14.4358 12.2964 12.5833ZM14.2342 15.9668C15.3732 15.1993 16.1821 13.9805 16.4078 12.5688C16.3033 12.5352 14.8842 12.0866 13.2469 12.3487C13.9122 14.1746 14.1826 15.6615 14.2342 15.9668ZM12.4911 10.5525C12.6088 10.794 12.7228 11.0399 12.8281 11.287C12.8655 11.3756 12.9021 11.4625 12.9377 11.5494C14.6803 11.3304 16.3971 11.6988 16.4705 11.7139C16.4589 10.5131 16.0287 9.41105 15.317 8.54828C15.3074 8.56186 14.4938 9.73572 12.4911 10.5525Z" fill="white"/>
</g>
</svg>
