<svg width="35" height="34" viewBox="0 0 35 34" fill="none" xmlns="http://www.w3.org/2000/svg">
<g id="Icon">
<path id="Vector" d="M17.3728 7.39355C14.8869 7.39355 12.8632 9.43574 12.8632 11.9322C12.8632 13.5114 13.6742 14.9059 14.8988 15.7187C13.4197 16.2132 12.1399 17.1375 11.2013 18.3467C10.6823 17.9475 10.1024 17.6265 9.47729 17.3964C10.4252 16.6927 11.0447 15.5622 11.0447 14.2916C11.0447 12.1743 9.33233 10.4411 7.22789 10.4411C5.12346 10.4411 3.41107 12.1743 3.41107 14.2916C3.41107 15.5629 4.03106 16.6939 4.97981 17.3977C2.46799 18.3246 0.674072 20.7513 0.674072 23.6073V25.6135C0.674329 25.7664 0.735505 25.9129 0.843975 26.0206C0.952444 26.1286 1.09922 26.1887 1.25216 26.1882H10.0539C10.0753 26.1905 10.0966 26.1918 10.1179 26.1916H24.6281C24.6494 26.1918 24.671 26.1905 24.6921 26.1882H33.4945C33.8109 26.1869 34.0672 25.9301 34.068 25.6135V23.6073C34.068 20.7513 32.2772 18.3246 29.7667 17.3974C30.7154 16.6939 31.3354 15.5626 31.3354 14.2913C31.3354 12.1741 29.623 10.4408 27.5186 10.4408C25.4142 10.4408 23.7017 12.1741 23.7017 14.2913C23.7017 15.5619 24.3215 16.6926 25.2694 17.3962C24.643 17.6267 24.0629 17.9488 23.5432 18.349C22.605 17.1391 21.3269 16.2135 19.8479 15.7187C21.0722 14.9059 21.8835 13.5114 21.8835 11.9322C21.8835 9.43574 19.8587 7.39355 17.3729 7.39355H17.3728ZM17.3728 8.5451C19.232 8.5451 20.7307 10.054 20.7307 11.9322C20.7307 13.7957 19.2553 15.2899 17.4167 15.3138C17.4021 15.3138 17.3877 15.3118 17.3728 15.3118C17.3579 15.3118 17.3437 15.3138 17.3288 15.3138C15.4902 15.2902 14.0158 13.7958 14.0158 11.9322C14.0158 10.0537 15.5133 8.5451 17.3725 8.5451H17.3728ZM7.22796 11.5926C8.70312 11.5926 9.89323 12.7898 9.89323 14.2915C9.89323 15.7831 8.71852 16.9753 7.25724 16.9915C7.24747 16.9915 7.23796 16.9904 7.22794 16.9904C7.21817 16.9904 7.20866 16.9915 7.19864 16.9915C5.73735 16.9753 4.56264 15.7829 4.56264 14.2915C4.56264 12.7899 5.75275 11.5926 7.22792 11.5926H7.22796ZM27.5182 11.5926C28.9934 11.5926 30.1835 12.7898 30.1835 14.2915C30.1835 15.7831 29.0088 16.9753 27.5475 16.9915C27.5377 16.9915 27.5282 16.9904 27.5182 16.9904C27.5084 16.9904 27.4989 16.9915 27.4889 16.9915C26.0276 16.9753 24.8529 15.7829 24.8529 14.2915C24.8529 12.7899 26.043 11.5926 27.5182 11.5926H27.5182ZM17.3287 16.4653C17.3433 16.4656 17.3577 16.4674 17.3726 16.4674C17.3873 16.4674 17.4017 16.4653 17.4166 16.4653C21.1038 16.489 24.0548 19.4653 24.0548 23.191L24.0545 25.0397H10.6913V23.191C10.6913 19.4649 13.6414 16.489 17.3282 16.4653H17.3287ZM7.18387 18.1443C7.19852 18.1446 7.21292 18.1464 7.22782 18.1464C7.24273 18.1464 7.25687 18.1443 7.27178 18.1443C8.51894 18.1544 9.65713 18.5844 10.5634 19.3038C9.91491 20.4513 9.53987 21.7758 9.53987 23.1913V25.0356H1.82516V23.6072C1.82516 20.5792 4.2059 18.168 7.18373 18.1441L7.18387 18.1443ZM27.4741 18.1443C27.489 18.1446 27.5032 18.1464 27.5181 18.1464C27.533 18.1464 27.5471 18.1443 27.562 18.1443C30.5399 18.168 32.9206 20.5796 32.9206 23.6075V25.0356H25.202L25.2017 23.1913C25.2017 21.7766 24.8277 20.4531 24.1805 19.3059C25.087 18.5854 26.226 18.1543 27.4742 18.1443H27.4741Z" fill="#103E13"/>
</g>
</svg>
