<svg width="28" height="28" viewBox="0 0 28 28" fill="none" xmlns="http://www.w3.org/2000/svg">
<g id="Logo" clip-path="url(#clip0_211_2047)">
<path id="Vector" fill-rule="evenodd" clip-rule="evenodd" d="M6.97901 0.150024C10.8233 0.150024 13.9397 3.26643 13.9397 7.11072V0.150024H20.9004C24.7446 0.150024 27.8611 3.26643 27.8611 7.11072C27.8611 10.955 24.7446 14.0714 20.9004 14.0714C24.7446 14.0714 27.8611 17.1879 27.8611 21.0321C27.8611 22.9409 27.0927 24.6703 25.8484 25.9278L25.8224 25.9541L25.7993 25.9771C24.5415 27.2232 22.8108 27.9928 20.9004 27.9928C19.003 27.9928 17.2829 27.2336 16.0272 26.0024C16.0109 25.9864 15.9946 25.9702 15.9784 25.9541C15.9632 25.9388 15.948 25.9235 15.9329 25.9081C14.7001 24.6523 13.9397 22.931 13.9397 21.0321C13.9397 24.8764 10.8233 27.9928 6.97901 27.9928C3.13472 27.9928 0.0183105 24.8764 0.0183105 21.0321V14.0714H6.97901C3.13472 14.0714 0.0183105 10.955 0.0183105 7.11072C0.0183105 3.26643 3.13472 0.150024 6.97901 0.150024ZM12.5476 7.11072C12.5476 10.1862 10.0544 12.6793 6.97901 12.6793V1.54216C10.0544 1.54216 12.5476 4.03529 12.5476 7.11072ZM26.469 21.0321C26.469 17.9567 23.9758 15.4636 20.9004 15.4636C17.825 15.4636 15.3318 17.9567 15.3318 21.0321H26.469ZM1.41045 15.4636V21.0321C1.41045 24.1076 3.90358 26.6007 6.97901 26.6007C10.0544 26.6007 12.5476 24.1076 12.5476 21.0321V15.4636H1.41045ZM15.3318 12.6793V1.54216H20.9004C23.9758 1.54216 26.469 4.03529 26.469 7.11072C26.469 10.1862 23.9758 12.6793 20.9004 12.6793H15.3318Z" fill="#263238"/>
</g>
<defs>
<clipPath id="clip0_211_2047">
<rect width="27.8428" height="27.8428" fill="white" transform="translate(0.0183105 0.150024)"/>
</clipPath>
</defs>
</svg>
