<svg width="33" height="21" viewBox="0 0 33 21" fill="none" xmlns="http://www.w3.org/2000/svg">
<g id="Logo" clip-path="url(#clip0_211_2057)">
<path id="Vector" d="M30.7852 2.70105C30.7852 2.72458 30.7852 2.754 30.779 2.77166C30.7484 3.00114 30.7484 3.23062 30.7667 3.46599C30.779 3.52483 30.7913 3.58368 30.8403 3.63075C30.92 3.71901 31.0426 3.70136 31.0917 3.59544C31.1162 3.54249 31.1162 3.48953 31.1039 3.43657C31.0426 3.21297 31.0304 2.9776 31.0243 2.74812C31.0243 2.73635 31.0243 2.7187 31.0243 2.70105C31.0917 2.69516 31.153 2.68928 31.2082 2.68928C31.2511 2.68339 31.2879 2.67751 31.3186 2.65985C31.4105 2.61278 31.4105 2.51275 31.3124 2.46568C31.2756 2.44802 31.2266 2.44214 31.1837 2.44214C31.0304 2.44802 30.8771 2.44802 30.7238 2.44802C30.6687 2.44802 30.6135 2.45391 30.5583 2.45979C30.5276 2.46568 30.4909 2.46568 30.4664 2.48333C30.4234 2.50098 30.3989 2.5304 30.3989 2.57159C30.405 2.61278 30.4234 2.63632 30.4664 2.65397C30.4909 2.67163 30.5215 2.67751 30.5522 2.67751C30.6257 2.68339 30.7055 2.69516 30.7852 2.70105ZM32.4711 2.97172C32.4711 2.9776 32.4772 2.98349 32.4772 2.98349C32.5018 3.14236 32.5263 3.29535 32.5447 3.44834C32.5508 3.50129 32.557 3.54837 32.5937 3.58956C32.6734 3.68959 32.7961 3.67782 32.8512 3.57191C32.8758 3.51895 32.8819 3.46599 32.8696 3.40715C32.8328 3.23062 32.8144 3.0541 32.7777 2.88346C32.7531 2.77754 32.7225 2.67751 32.6918 2.58336C32.6734 2.52452 32.6305 2.48333 32.557 2.47745C32.4834 2.46568 32.4282 2.50098 32.3975 2.55394C32.3608 2.60101 32.3301 2.64809 32.3056 2.70105C32.2627 2.79519 32.2259 2.88934 32.1769 2.9776C32.1707 3.00114 32.1646 3.01879 32.1523 3.03644C32.1462 3.02467 32.1401 3.01879 32.1401 3.01879C32.0603 2.87169 31.9868 2.72458 31.9071 2.58336C31.8948 2.57159 31.8887 2.55982 31.8826 2.54806C31.8458 2.4951 31.8029 2.46568 31.7354 2.46568C31.6741 2.47156 31.625 2.50687 31.5944 2.55982C31.5821 2.58336 31.5821 2.60101 31.576 2.62455C31.5515 2.81285 31.5208 3.00114 31.4963 3.18943C31.484 3.29535 31.4779 3.40126 31.4779 3.50718C31.4718 3.53072 31.4779 3.56014 31.4902 3.58368C31.5025 3.63075 31.5392 3.66017 31.5883 3.66605C31.6496 3.67194 31.6925 3.65429 31.7109 3.60721C31.7293 3.57191 31.7354 3.54249 31.7416 3.51307C31.7661 3.40715 31.7845 3.30712 31.8029 3.20709C31.8151 3.14825 31.8212 3.10117 31.8397 3.03644C31.8519 3.05998 31.8641 3.07764 31.8764 3.09528C31.9316 3.1659 31.9868 3.23651 32.0542 3.29535C32.1217 3.34242 32.1769 3.33654 32.232 3.28358C32.2443 3.27181 32.2504 3.26593 32.2627 3.25416C32.3179 3.17178 32.3853 3.0894 32.4405 3.00702C32.4527 2.99525 32.4589 2.98349 32.4711 2.97172Z" fill="#3A3B7B"/>
<path id="Vector_2" d="M18.3449 2.81659C18.3023 2.92842 18.2941 3.00898 18.3138 3.07594C18.3355 3.167 18.392 3.19681 18.4685 3.17365C19.1886 3.00275 20.7677 3.48785 21.3523 3.62306C21.4902 3.65145 21.6024 3.48062 21.5083 3.32747C21.371 3.17914 19.7926 2.54412 19.1903 2.5095C18.9543 2.4967 18.5323 2.4386 18.3449 2.81659Z" fill="#3A3B7B"/>
<path id="Vector_3" d="M24.5161 0.760957C24.5929 0.803472 24.6358 0.844027 24.657 0.88934C24.6885 0.948779 24.6719 0.989903 24.6189 1.01089C24.1429 1.23386 23.5094 2.1938 23.2538 2.52488C23.1918 2.60104 23.0488 2.55678 23.0272 2.43153C23.0317 2.28992 23.5931 1.24817 23.9065 0.964432C24.0297 0.853653 24.2331 0.636289 24.5161 0.760957Z" fill="#3A3B7B"/>
<path id="Vector_4" d="M20.7254 0.288449C20.8176 0.221754 20.9134 0.198382 20.9623 0.241725C21.6805 0.831225 22.0614 1.76475 22.2972 2.61937C22.3061 2.63928 22.3067 2.66785 22.2996 2.69766C22.2966 2.72314 22.2772 2.75005 22.2464 2.77087C22.2135 2.79386 22.1852 2.80086 22.1719 2.78105C21.8571 2.37014 20.0593 0.771364 20.7254 0.288449Z" fill="#3A3B7B"/>
<path id="Vector_5" d="M5.51689 10.5088C5.68901 10.3858 5.87615 10.2834 6.07417 10.204C6.28135 10.1471 6.50218 10.1565 6.70328 10.2309C6.90434 10.3052 7.07479 10.4403 7.18873 10.6158C7.29066 10.7909 7.33053 10.993 7.30239 11.1918C7.27426 11.3905 7.17962 11.575 7.03268 11.7176C6.91878 11.8333 6.78946 11.934 6.64818 12.0172C6.01846 12.4076 5.38313 12.7767 4.74783 13.1671C4.61783 13.2649 4.47993 13.3525 4.33543 13.4292C4.11565 13.5344 3.86447 13.5626 3.62533 13.5089C3.38619 13.4552 3.17413 13.3229 3.02581 13.1351C2.91494 13.002 2.82137 12.8566 2.74717 12.7018C2.1453 11.4877 1.52115 10.2788 0.941566 9.04328C0.674068 8.50844 0.456728 7.89331 0.244959 7.29962C0.153339 7.12712 0.135447 6.92714 0.195095 6.74216C0.254742 6.55718 0.387223 6.40184 0.564355 6.30917C0.741489 6.2165 0.949297 6.19384 1.14359 6.24595C1.33788 6.29807 1.50332 6.42088 1.60473 6.58824C1.91644 6.98582 2.19236 7.40812 2.42952 7.85056C3.03138 8.92028 3.60539 9.99 4.18497 11.0277C4.21872 11.085 4.25593 11.1403 4.29642 11.1935C4.73265 11.0174 5.14295 10.7873 5.51689 10.5088Z" fill="#3A3B7B"/>
<path id="Vector_6" d="M11.7398 10.1357C10.3634 11.6815 8.05619 11.291 6.89704 9.30133C6.07224 7.88927 5.92736 5.55724 7.72184 4.08635C8.10503 3.77841 8.56323 3.56864 9.05372 3.4766C9.65512 3.39385 10.2684 3.49568 10.8059 3.76754C11.3433 4.0394 11.7775 4.46736 12.0464 4.99029C13.0272 6.70188 12.8879 8.88412 11.7398 10.1357ZM11.1826 6.53071C11.0363 6.11011 10.743 5.75102 10.3522 5.51444C10.1311 5.36318 9.8624 5.28964 9.59142 5.3062C9.3204 5.32276 9.06363 5.42842 8.86426 5.60536C8.06736 6.28467 7.90014 7.89464 8.47971 8.85205C8.5536 9.00818 8.66208 9.14691 8.79766 9.25857C8.93324 9.37024 9.09261 9.45213 9.2646 9.49847C9.43659 9.54485 9.61703 9.55457 9.79337 9.527C9.9697 9.49938 10.1376 9.43516 10.2854 9.33877C10.7173 9.01731 11.0343 8.57468 11.192 8.07242C11.3499 7.57011 11.3407 7.03311 11.1659 6.53608L11.1826 6.53071Z" fill="#3A3B7B"/>
<path id="Vector_7" d="M17.3572 7.20457C17.2163 7.23366 17.0707 7.2354 16.9291 7.20967C16.7875 7.18393 16.6526 7.13131 16.5325 7.05483C16.4274 6.99712 16.3369 6.9178 16.2675 6.82251C16.1982 6.72722 16.1518 6.6184 16.1315 6.5038C16.1113 6.38924 16.1177 6.2718 16.1504 6.1599C16.1831 6.04801 16.2413 5.94446 16.3207 5.8567C16.4591 5.68035 16.6554 5.55409 16.878 5.49835C17.4591 5.3365 18.0573 5.23781 18.6613 5.20419C18.794 5.18937 18.9285 5.20015 19.0568 5.23589C19.1851 5.27167 19.3047 5.33163 19.4085 5.41238C19.5123 5.49308 19.5983 5.59291 19.6614 5.70595C19.7245 5.81899 19.7634 5.94299 19.7759 6.07067C19.95 6.69781 19.9691 7.35537 19.8316 7.99087C19.3301 10.0447 17.6025 10.7508 15.6631 10.0929C15.1187 9.91698 14.6414 9.58923 14.2922 9.15152C13.8264 8.62439 13.4962 7.99967 13.3281 7.32762C13.1919 6.72915 13.2068 6.10815 13.3716 5.51638C13.5364 4.92461 13.8463 4.37924 14.2755 3.92584C14.6827 3.43304 15.2113 3.04521 15.8136 2.79726C16.1942 2.59593 16.6395 2.53868 17.0619 2.6368C17.1577 2.66225 17.2447 2.71185 17.3138 2.78044C17.3829 2.84903 17.4317 2.93412 17.455 3.02689C17.4783 3.11965 17.4753 3.21672 17.4464 3.30801C17.4174 3.3993 17.3636 3.4815 17.2904 3.54608C17.1512 3.66699 17 3.77448 16.839 3.867C16.3435 4.16982 15.9124 4.56003 15.5684 5.01696C15.3429 5.31264 15.1876 5.65218 15.1134 6.01163C15.0393 6.37108 15.0481 6.74176 15.1393 7.09763C15.2657 7.58283 15.5461 8.01835 15.9417 8.34385C17.1678 9.41361 18.7616 8.38128 18.483 6.9211C18.0762 7.0174 17.7195 7.11901 17.3572 7.20457Z" fill="#3A3B7B"/>
<path id="Vector_8" d="M24.8473 10.2213C23.0361 11.2911 20.9742 10.2213 20.5227 7.9749C20.194 6.3703 20.8181 4.12383 23.0027 3.26804C23.4675 3.08988 23.9716 3.02732 24.4683 3.08618C25.0651 3.19103 25.6126 3.47301 26.0335 3.89236C26.4544 4.31171 26.7276 4.84726 26.8145 5.42357C27.1823 7.33303 26.3464 9.3709 24.8473 10.2213ZM25.4771 6.62166C25.4765 6.17734 25.3127 5.74737 25.0145 5.40751C24.8551 5.1973 24.6246 5.04669 24.3624 4.98131C24.1002 4.91598 23.8225 4.93993 23.5767 5.04917C22.5959 5.45564 21.9048 6.93188 22.1556 8.0177C22.1748 8.18809 22.2324 8.35242 22.3247 8.49919C22.4169 8.64595 22.5414 8.77161 22.6895 8.8674C22.8375 8.96314 23.0056 9.02673 23.182 9.05366C23.3584 9.08054 23.5387 9.07017 23.7104 9.02324C24.2289 8.84941 24.6778 8.52456 24.9945 8.094C25.3112 7.66344 25.4799 7.14869 25.4771 6.62166Z" fill="#3A3B7B"/>
<path id="Vector_9" d="M28.646 10.6706C28.6187 10.8664 28.5115 11.0437 28.3479 11.1636C28.1843 11.2834 27.9779 11.336 27.7739 11.3098C27.5699 11.2835 27.3852 11.1806 27.2603 11.0236C27.1354 10.8666 27.0806 10.6685 27.108 10.4727C27.1353 10.2769 27.2426 10.0996 27.4061 9.97974C27.5697 9.85987 27.7761 9.80729 27.9801 9.83353C28.1841 9.85978 28.3688 9.96268 28.4937 10.1197C28.6186 10.2767 28.6734 10.4749 28.646 10.6706ZM28.1612 3.4552C28.2672 3.29983 28.4227 3.18152 28.6045 3.1179C28.7863 3.05428 28.9846 3.04877 29.1699 3.10219C29.3583 3.14743 29.5247 3.25341 29.6414 3.40238C29.7581 3.55137 29.8179 3.73429 29.8108 3.92054C29.7862 4.21928 29.7397 4.51598 29.6715 4.80841C29.4876 5.79794 29.3092 6.78742 29.1142 7.76626C29.025 8.15672 28.908 8.53112 28.7798 8.92691C28.7352 9.05064 28.6607 9.16244 28.5625 9.25319C28.5014 9.32145 28.4234 9.3738 28.3356 9.40541C28.2479 9.43706 28.1532 9.44693 28.0604 9.43413C27.9677 9.42133 27.8797 9.38628 27.8048 9.33223C27.7299 9.27814 27.6704 9.2068 27.6318 9.12482C27.5656 8.97774 27.5296 8.81969 27.5259 8.65949C27.5259 7.99624 27.5259 7.32767 27.5705 6.65905C27.6463 5.7049 27.7953 4.75738 28.0163 3.82426C28.0424 3.69924 28.0914 3.57969 28.1612 3.47125V3.4552Z" fill="#3A3B7B"/>
<path id="Vector_10" fill-rule="evenodd" clip-rule="evenodd" d="M3.16231 14.9687C3.09651 15.1097 3.07847 15.2668 3.11062 15.4181C3.13201 15.6175 3.179 15.8136 3.2505 16.002C3.33978 16.2326 3.43968 16.4607 3.56285 16.7419C3.59118 16.8066 3.62078 16.8741 3.65176 16.9452C3.81787 17.326 4.02629 17.8128 4.3043 18.5172C4.38299 18.7174 4.45287 18.9191 4.52323 19.1223C4.55166 19.2043 4.58019 19.2867 4.60939 19.3692C4.71406 19.6627 4.89416 19.9263 5.13289 20.1352C5.23426 20.25 5.36872 20.3337 5.51949 20.3755C5.6732 20.4182 5.83669 20.4155 5.98877 20.3678C6.14084 20.32 6.27442 20.2295 6.37214 20.1079C6.46795 19.9886 6.52492 19.8449 6.536 19.6948C6.59816 19.4024 6.57694 19.0992 6.47449 18.8173C6.3119 18.3492 6.12668 17.8804 5.9131 17.4219L5.91212 17.4199C5.56076 16.7026 5.2036 15.9902 4.82954 15.2775L4.82674 15.2725C4.71724 15.0869 4.57493 14.9209 4.40622 14.782C4.29668 14.6581 4.1456 14.5745 3.97875 14.5457C3.80835 14.5163 3.6326 14.546 3.48289 14.6294C3.34126 14.707 3.22899 14.8258 3.16231 14.9687Z" fill="#3A3B7B"/>
<path id="Vector_11" fill-rule="evenodd" clip-rule="evenodd" d="M8.52889 13.2023C7.97797 13.0654 7.4026 13.0454 6.84289 13.1439C6.40936 13.1849 5.98299 13.2808 5.68692 13.471C5.53633 13.5677 5.41459 13.6919 5.34686 13.8499C5.27877 14.0086 5.27008 14.1902 5.32588 14.3925C5.42776 14.7631 5.56007 15.1235 5.69192 15.4826L5.71328 15.5408L5.71379 15.5421C6.11077 16.5855 6.51153 17.6254 6.91594 18.6617C6.96309 18.8251 7.02978 18.9826 7.11466 19.1312L7.11625 19.134C7.22837 19.3186 7.37217 19.4837 7.54159 19.6224C7.62632 19.6986 7.73111 19.7514 7.84472 19.775C7.95946 19.7987 8.07878 19.7918 8.18968 19.755C8.30063 19.7181 8.39887 19.6527 8.47374 19.5659C8.5474 19.4806 8.59563 19.3777 8.61334 19.2682C8.68644 18.9709 8.66302 18.6591 8.54618 18.3749C8.50973 18.2792 8.48113 18.1815 8.45098 18.0785C8.44093 18.0442 8.43075 18.0093 8.42 17.9738C9.3457 17.6265 10.3307 17.1595 10.677 16.0731C10.8127 15.6977 10.824 15.2912 10.7094 14.9093C10.5947 14.527 10.3594 14.1882 10.0359 13.9394C9.59555 13.5912 9.08122 13.3396 8.52889 13.2023ZM7.00179 14.5348C7.02002 14.5298 7.03838 14.5251 7.0568 14.5208C7.65946 14.4298 8.27605 14.551 8.79304 14.8619C9.02088 15.0139 9.11421 15.1829 9.13025 15.3455C9.14679 15.5129 9.08337 15.6943 8.95597 15.8687C8.71523 16.1981 8.27591 16.4617 7.87907 16.5109C7.58978 15.8714 7.29599 15.2061 7.00179 14.5348Z" fill="#3A3B7B"/>
<path id="Vector_12" d="M12.2018 12.0319C12.8579 11.741 13.6706 11.6908 14.3065 11.8953C14.4667 11.9401 14.6057 12.0369 14.6996 12.1693C14.793 12.3008 14.8361 12.4593 14.8217 12.6178C14.8208 12.7206 14.7945 12.8218 14.745 12.9131C14.6946 13.0061 14.6216 13.086 14.5323 13.1462C14.4429 13.2063 14.3398 13.245 14.2316 13.2588C14.1233 13.2727 14.0133 13.2613 13.9106 13.2256L13.9028 13.2229L13.8955 13.2192C13.8429 13.1928 13.7871 13.173 13.7294 13.16L13.7258 13.1592C13.2784 13.0452 12.8564 13.2342 12.7023 13.4663C12.6288 13.5771 12.6196 13.6888 12.6809 13.7905C12.7464 13.8993 12.9073 14.0215 13.2327 14.1086C13.3222 14.1322 13.4139 14.1549 13.507 14.178C13.7643 14.242 14.0317 14.3084 14.2903 14.4005L14.2913 14.4009C15.4843 14.8365 15.9285 15.7388 15.7764 16.5874C15.626 17.4267 14.8957 18.1904 13.7976 18.3706C13.398 18.4556 12.9821 18.439 12.5912 18.3226C12.1993 18.2057 11.846 17.9925 11.5665 17.704L11.5592 17.6965C11.4709 17.5878 11.4116 17.4602 11.3853 17.3247C11.361 17.2024 11.3738 17.0761 11.4219 16.9605C11.4698 16.8456 11.5507 16.7462 11.6552 16.6738C11.7655 16.5916 11.8986 16.5424 12.0378 16.5321C12.1765 16.5219 12.3154 16.5508 12.4372 16.6153C12.5589 16.6717 12.6721 16.7437 12.7737 16.8293L12.7757 16.8309C12.9554 16.9887 13.1729 17.0298 13.3814 16.9917C13.593 16.9531 13.7919 16.8329 13.9199 16.6735C14.047 16.5151 14.0981 16.3269 14.0375 16.1442C13.9765 15.9602 13.7933 15.754 13.3907 15.5817C13.2854 15.5388 13.1763 15.5042 13.0628 15.4705C13.0321 15.4614 13.001 15.4524 12.9695 15.4432C12.8856 15.4187 12.7992 15.3936 12.7145 15.3658C12.6562 15.3467 12.5983 15.3286 12.541 15.3107C12.3844 15.2618 12.2317 15.214 12.0848 15.15C11.765 15.0455 11.4887 14.8449 11.297 14.5777C11.1046 14.3095 11.0077 13.9888 11.0209 13.6634C11.0219 12.8705 11.5422 12.3243 12.2018 12.0319Z" fill="#3A3B7B"/>
<path id="Vector_13" d="M20.5196 11.9475C20.3923 11.8878 20.2517 11.8595 20.1102 11.8651C19.9688 11.8707 19.831 11.9099 19.7093 11.9794C19.5884 12.0484 19.4872 12.1451 19.4147 12.2607C19.3482 12.3581 19.3021 12.467 19.2792 12.5814C19.2562 12.6957 19.2568 12.8131 19.2808 12.9271C19.3045 13.0737 19.3307 13.2162 19.3567 13.3567C19.3996 13.5892 19.4414 13.8165 19.469 14.0483L19.47 14.0542C19.5328 14.4177 19.5656 14.7853 19.5686 15.1537L19.5689 15.1589C19.5903 15.5568 19.4491 15.9469 19.1754 16.2464L19.1711 16.2518C19.082 16.3613 18.963 16.4449 18.8272 16.4932C18.6915 16.5415 18.5445 16.5526 18.4026 16.5252C18.2606 16.4979 18.1294 16.4332 18.0236 16.3384C17.9178 16.2435 17.8415 16.122 17.8034 15.988C17.7221 15.7055 17.675 15.415 17.663 15.1222L17.8019 12.9997C17.804 12.972 17.8063 12.9436 17.8087 12.9149C17.814 12.8504 17.8194 12.7848 17.8217 12.7235C17.8249 12.6334 17.8221 12.5407 17.8003 12.453C17.7779 12.3634 17.7353 12.2781 17.6598 12.2055C17.585 12.1336 17.484 12.0805 17.357 12.0444C17.1273 11.9806 16.9331 11.9826 16.7712 12.0486C16.6093 12.1145 16.4983 12.2369 16.4198 12.3783C16.3419 12.5185 16.2919 12.6845 16.254 12.8507C16.2259 12.9741 16.2033 13.1036 16.1819 13.2269C16.1745 13.2694 16.1672 13.3111 16.1599 13.3516L16.1597 13.3528C16.0449 14.0288 16.0107 14.7152 16.0578 15.3987C16.0666 15.7681 16.1469 16.1327 16.2946 16.4739C16.4612 16.9141 16.763 17.2955 17.1601 17.5678C17.558 17.8406 18.0329 17.991 18.5219 17.9989C19.0108 18.0068 19.4908 17.872 19.8981 17.6123C20.3048 17.353 20.62 16.9813 20.802 16.5464C21.0566 15.9924 21.1761 15.39 21.1514 14.7849C21.1365 14.3432 21.1114 13.8981 21.0865 13.4553C21.0743 13.238 21.0621 13.0213 21.0511 12.8058C21.0456 12.5898 20.9714 12.3805 20.8384 12.2062C20.7561 12.0959 20.6465 12.007 20.5196 11.9475Z" fill="#3A3B7B"/>
<path id="Vector_14" d="M25.0222 15.2754C25.0093 15.2912 24.9957 15.3074 24.9815 15.3244C24.8781 14.7515 24.7822 14.1787 24.6861 13.6051C24.6517 13.3993 24.617 13.1926 24.5822 12.9866L24.5783 12.9636L24.5656 12.9437C24.5416 12.9063 24.5392 12.8697 24.5392 12.7915V12.7825L24.5378 12.7735C24.5118 12.6121 24.4357 12.4618 24.3195 12.3424C24.2036 12.2234 24.053 12.1405 23.8874 12.1046C23.7221 12.0654 23.5484 12.0741 23.3882 12.1294C23.2283 12.1846 23.089 12.2838 22.9876 12.4145C22.9033 12.5148 22.8342 12.6261 22.7824 12.7451C22.6648 13.0012 22.5463 13.2581 22.4274 13.5156L22.4253 13.52C22.1285 14.1629 21.8297 14.8101 21.5395 15.4624L21.5386 15.4645C21.3605 15.8874 21.2135 16.3331 21.067 16.7774C21.0377 16.866 21.0085 16.9547 20.979 17.0431C20.9261 17.1833 20.9029 17.3322 20.9109 17.4811C20.9012 17.6143 20.9345 17.7473 21.0062 17.8619C21.0793 17.9789 21.1888 18.071 21.3192 18.1251C21.4574 18.1833 21.612 18.1957 21.7584 18.1602C21.9045 18.1249 22.0343 18.0439 22.1272 17.9302C22.2459 17.79 22.3481 17.6371 22.4313 17.4752C22.6771 16.9927 22.912 16.5042 23.1458 16.0179C23.2363 15.8298 23.3242 15.6614 23.4242 15.4779C23.4311 15.5005 23.4381 15.5226 23.4454 15.5447C23.5502 15.9877 23.7271 16.4119 23.9697 16.802C24.0155 16.8846 24.0795 16.9568 24.1571 17.0137C24.2356 17.0712 24.3262 17.1116 24.4226 17.1321C24.519 17.1526 24.619 17.1527 24.7154 17.1324C24.8117 17.1121 24.9026 17.0717 24.9812 17.0144L25.1367 16.9027L26.3436 15.927L26.2722 16.3635C26.1742 16.9636 26.077 17.5586 25.9737 18.1538C25.9062 18.4176 25.9063 18.6931 25.974 18.9568C26.0034 19.1052 26.0782 19.2418 26.1888 19.3493C26.3004 19.4576 26.4433 19.5312 26.5991 19.5605C26.7548 19.5899 26.9161 19.5736 27.0621 19.5138C27.2059 19.455 27.3283 19.3565 27.4138 19.2311C27.6128 18.9941 27.7367 18.7072 27.7707 18.4046C27.8219 17.9772 27.8798 17.544 27.9377 17.1109C28.0044 16.6117 28.0711 16.1126 28.1274 15.6232L28.1276 15.6217C28.1818 15.0859 28.208 14.5479 28.2062 14.0095C28.2181 13.8394 28.1739 13.6699 28.0799 13.5251C27.9855 13.3798 27.8458 13.2668 27.6806 13.2021C27.5088 13.1272 27.3165 13.1071 27.132 13.145C26.9486 13.1826 26.7827 13.2754 26.6581 13.4098C26.4355 13.6074 26.2267 13.8188 26.033 14.0427L26.0317 14.0443C25.8202 14.2972 25.6102 14.5551 25.4015 14.8113C25.2746 14.967 25.1481 15.1224 25.0222 15.2754Z" fill="#3A3B7B"/>
</g>
<defs>
<clipPath id="clip0_211_2057">
<rect width="32.7153" height="20.186" fill="white" transform="translate(0.160461 0.219727)"/>
</clipPath>
</defs>
</svg>
