<svg width="308" height="302" viewBox="0 0 308 302" fill="none" xmlns="http://www.w3.org/2000/svg">
<path d="M262.213 301.649C262.213 301.75 212.257 301.836 150.655 301.836C89.0519 301.836 39.0747 301.75 39.0747 301.649C39.0747 301.548 89.0231 301.462 150.655 301.462C212.286 301.462 262.213 301.556 262.213 301.649Z" fill="#263238"/>
<path d="M213.538 213.579C202.423 205.817 199.905 191.407 200.344 178.451C200.416 176.293 200.179 174.005 201.207 172.113C202.236 170.221 204.639 168.919 206.574 169.825C208.178 170.581 208.876 172.451 209.775 173.998C210.975 176.058 212.734 177.736 214.847 178.839C216.221 179.559 217.926 179.99 219.286 179.242C221.156 178.213 221.372 175.645 221.358 173.487C221.358 169.473 221.334 165.463 221.286 161.458C221.157 159.308 221.375 157.151 221.933 155.07C222.602 153.027 224.092 151.135 226.128 150.559C228.163 149.984 230.703 151.171 231.163 153.272C231.243 154.161 231.264 155.055 231.228 155.948C231.286 156.847 231.703 157.833 232.545 158.106C233.386 158.379 234.264 157.754 234.912 157.12C237.127 154.962 238.638 152.149 240.041 149.372C241.444 146.596 242.818 143.739 244.832 141.373C246.846 139.006 249.631 137.128 252.746 136.948C255.861 136.768 259.105 138.682 259.882 141.704C260.659 144.725 258.897 147.811 257.004 150.264C254.149 153.906 250.784 157.116 247.012 159.797C246.276 160.199 245.688 160.827 245.336 161.588C244.868 163.027 246.228 164.466 247.645 164.919C249.249 165.451 250.99 165.286 252.681 165.487C254.371 165.689 256.17 166.422 256.81 168.005C257.688 170.206 255.846 172.509 254.041 174.019C250.415 177.041 246.298 179.418 241.868 181.048C240.285 181.623 238.624 182.134 237.343 183.242C236.063 184.35 235.3 186.285 236.07 187.803C236.84 189.321 238.818 189.803 240.48 189.494C242.142 189.184 243.616 188.292 245.199 187.695C248.156 186.58 251.969 186.782 253.832 189.335C254.409 190.215 254.775 191.217 254.899 192.262C255.024 193.306 254.905 194.366 254.551 195.357C253.831 197.329 252.723 199.137 251.292 200.673C246.581 206.303 240.458 210.58 233.552 213.069C226.696 215.443 220.344 216.09 213.531 213.594" fill="#4CAF4F"/>
<path d="M256.717 138.725C256.717 138.725 256.652 138.797 256.508 138.927L255.868 139.495C255.307 139.999 254.479 140.732 253.436 141.704C250.479 144.45 247.732 147.415 245.221 150.574C243.616 152.567 241.955 154.826 240.185 157.279C238.415 159.732 236.588 162.379 234.775 165.192C232.842 168.158 231.072 171.228 229.473 174.386C228.638 176.034 227.905 177.753 227.149 179.508L224.919 184.868C221.979 191.619 219.419 198.529 217.25 205.565C215.503 211.322 214.299 217.231 213.653 223.212C213.235 227.249 213.167 231.315 213.452 235.363C213.567 236.802 213.675 237.903 213.775 238.651C213.819 239.01 213.847 239.298 213.876 239.507V239.802C213.845 239.708 213.823 239.612 213.811 239.514C213.775 239.305 213.732 239.025 213.675 238.665C213.545 237.946 213.408 236.809 213.279 235.37C212.932 231.314 212.956 227.235 213.351 223.184C213.957 217.176 215.135 211.241 216.869 205.457C219.02 198.401 221.573 191.474 224.516 184.71L226.804 179.372C227.559 177.624 228.3 175.89 229.142 174.235C230.752 171.067 232.537 167.99 234.487 165.02C236.329 162.142 238.185 159.538 239.933 157.106C241.681 154.674 243.372 152.401 244.969 150.416C247.506 147.265 250.289 144.32 253.292 141.61C254.357 140.653 255.206 139.934 255.781 139.452L256.451 138.912C256.533 138.841 256.622 138.778 256.717 138.725Z" fill="#263238"/>
<path d="M229.235 174.221C229.134 173.924 229.064 173.618 229.027 173.307C228.912 172.71 228.782 171.868 228.631 170.775C228.322 168.617 228.005 165.66 227.667 162.386C227.329 159.113 226.948 156.149 226.631 154.013C226.466 152.948 226.322 152.092 226.221 151.495C226.143 151.189 226.101 150.875 226.099 150.559C226.223 150.848 226.312 151.15 226.365 151.459C226.523 152.049 226.703 152.898 226.905 153.969C227.315 156.128 227.717 159.063 228.056 162.343C228.394 165.624 228.681 168.501 228.904 170.739C229.012 171.746 229.106 172.602 229.178 173.286C229.234 173.594 229.253 173.908 229.235 174.221Z" fill="#263238"/>
<path d="M256.918 169.055C256.568 169.132 256.212 169.175 255.853 169.185C255.134 169.25 254.112 169.336 252.846 169.48C250.314 169.753 246.832 170.257 243.012 170.976C239.192 171.696 235.76 172.509 233.293 173.134C232.063 173.451 231.07 173.739 230.415 173.933C230.066 174.057 229.704 174.144 229.336 174.192C229.669 174.025 230.015 173.888 230.372 173.782C231.048 173.544 232.027 173.214 233.25 172.861C235.703 172.142 239.134 171.286 242.969 170.552C246.217 169.931 249.494 169.474 252.789 169.185C254.062 169.077 255.091 169.034 255.81 169.019C256.18 168.994 256.551 169.006 256.918 169.055Z" fill="#263238"/>
<path d="M217.221 204.954C217.145 204.85 217.082 204.736 217.034 204.616L216.559 203.616C216.149 202.745 215.595 201.457 214.934 199.882C213.596 196.717 211.891 192.285 210.078 187.364C208.265 182.444 206.596 178.012 205.33 174.811C204.711 173.257 204.2 171.983 203.819 171.034L203.416 170.005C203.36 169.886 203.321 169.76 203.301 169.631C203.378 169.735 203.44 169.849 203.488 169.969L203.963 170.969C204.366 171.839 204.927 173.127 205.589 174.703C206.927 177.868 208.632 182.3 210.445 187.22C212.257 192.141 213.926 196.573 215.193 199.774C215.811 201.328 216.322 202.601 216.696 203.551C216.862 203.961 216.998 204.27 217.106 204.58C217.162 204.698 217.201 204.824 217.221 204.954Z" fill="#263238"/>
<path d="M253.969 193.105C253.853 193.171 253.73 193.222 253.602 193.256L252.537 193.616L248.602 194.889C245.278 195.968 240.688 197.508 235.653 199.206C230.617 200.904 226.005 202.414 222.66 203.421C220.991 203.932 219.631 204.321 218.689 204.58L217.603 204.86C217.476 204.9 217.346 204.927 217.214 204.939C217.329 204.873 217.453 204.822 217.581 204.788L218.646 204.429L222.581 203.155C225.905 202.076 230.494 200.537 235.53 198.839C240.566 197.141 245.17 195.63 248.516 194.623C250.192 194.112 251.544 193.724 252.494 193.465L253.58 193.184C253.706 193.144 253.837 193.118 253.969 193.105Z" fill="#263238"/>
<path d="M238.976 18.5988L235.271 19.9225L233.681 15.0809C230.761 6.15308 221.451 1.4122 212.898 4.42651C204.344 7.44082 199.79 17.2319 202.711 26.1598L204.301 31.0014L200.581 32.3323C199.163 32.8824 198.012 33.9579 197.366 35.3352C196.72 36.7125 196.63 38.2857 197.114 39.7278L207.423 71.2306C207.637 71.9445 207.992 72.608 208.468 73.1819C208.943 73.7558 209.529 74.2282 210.191 74.5711C210.853 74.914 211.577 75.1204 212.32 75.1781C213.063 75.2358 213.81 75.1435 214.516 74.9067L252.911 61.1733C254.348 60.6241 255.516 59.5391 256.169 58.1464C256.823 56.7538 256.911 55.162 256.415 53.7058L246.098 22.203C245.879 21.4912 245.518 20.8308 245.038 20.2614C244.557 19.6919 243.967 19.2251 243.303 18.8887C242.638 18.5523 241.912 18.3533 241.169 18.3035C240.426 18.2537 239.68 18.3541 238.976 18.5988ZM209.711 23.6347C208.923 21.3133 209.065 18.7772 210.105 16.5578C211.146 14.3383 213.005 12.6077 215.293 11.7285C216.423 11.3419 217.619 11.1869 218.811 11.2727C220.002 11.3584 221.163 11.6833 222.226 12.2278C223.289 12.7723 224.231 13.5253 224.997 14.442C225.762 15.3586 226.335 16.42 226.682 17.5629L228.264 22.4045L211.293 28.4763L209.711 23.6347ZM231.293 51.5908L233.926 59.6337C233.974 59.795 233.959 59.9687 233.882 60.1188C233.806 60.2688 233.675 60.3837 233.516 60.4395L229.825 61.756C229.678 61.7967 229.522 61.779 229.387 61.7066C229.253 61.6342 229.152 61.5127 229.106 61.3675L226.451 53.3605C224.988 53.2808 223.583 52.7558 222.426 51.8558C221.269 50.9558 220.414 49.7238 219.977 48.3247C219.351 46.475 219.465 44.4551 220.295 42.6877C221.125 40.9203 222.607 39.5425 224.43 38.8429C225.33 38.5354 226.283 38.4122 227.231 38.4807C228.18 38.5493 229.105 38.8081 229.952 39.2417C230.798 39.6754 231.549 40.2751 232.159 41.005C232.769 41.7349 233.225 42.5801 233.501 43.4903C233.964 44.9115 234.003 46.4369 233.612 47.8795C233.221 49.3221 232.417 50.6194 231.3 51.6124L231.293 51.5908Z" fill="#4CAF4F"/>
<path d="M235.106 19.8362C235.106 19.9369 228.235 22.5196 219.689 25.5914C211.142 28.6633 204.171 31.1309 204.135 31.0589C204.099 30.987 211.006 28.3827 219.559 25.3037C228.113 22.2246 235.07 19.7427 235.106 19.8362Z" fill="#263238"/>
<path d="M243.264 21.1599C243.296 21.2223 243.322 21.2873 243.343 21.3541C243.401 21.498 243.465 21.685 243.552 21.9153C243.739 22.4404 243.998 23.167 244.321 24.0735L247.084 32.1164C248.235 35.5264 249.609 39.5695 251.134 44.0586C251.854 46.3103 252.702 48.6556 253.494 51.1231C253.917 52.3947 254.1 53.7341 254.033 55.0727C253.972 55.7689 253.774 56.4461 253.451 57.0654C253.105 57.6827 252.643 58.2275 252.091 58.6697C250.979 59.481 249.746 60.11 248.436 60.533L244.731 61.8639L237.717 64.3746L225.84 68.6047L217.818 71.4248L215.66 72.1442L215.085 72.3312C215.023 72.3586 214.958 72.3756 214.89 72.3816C214.89 72.3816 214.948 72.3816 215.07 72.2953L215.631 72.0723L217.79 71.2593L225.768 68.3242L237.624 64.0077L244.624 61.4754L248.328 60.1373C249.601 59.7315 250.799 59.1217 251.875 58.3316C252.389 57.9212 252.819 57.4156 253.141 56.8424C253.446 56.2696 253.63 55.6403 253.681 54.9936C253.747 53.7038 253.571 52.413 253.163 51.1879C252.386 48.7419 251.566 46.3751 250.825 44.1233C249.328 39.627 247.947 35.5696 246.854 32.1596C245.76 28.7496 244.839 26.0087 244.206 24.0807C243.904 23.1382 243.674 22.4045 243.487 21.8721L243.314 21.2966C243.292 21.253 243.276 21.2071 243.264 21.1599Z" fill="#263238"/>
<path d="M223.005 11.2393C223.005 11.2393 222.624 11.0523 221.919 10.7645C220.914 10.3784 219.851 10.1643 218.775 10.1314C217.18 10.0767 215.593 10.3765 214.128 11.0091C212.346 11.7968 210.823 13.071 209.732 14.6853C208.635 16.2949 208.046 18.1972 208.042 20.1456C208.057 21.7424 208.299 23.3291 208.761 24.8577C209.135 26.167 209.524 27.2101 209.783 27.9367C209.936 28.3058 210.061 28.6857 210.157 29.0734C209.952 28.7283 209.781 28.3646 209.646 27.9871C209.351 27.2677 208.927 26.2461 208.509 24.9296C207.997 23.3849 207.718 21.7725 207.682 20.1456C207.663 18.1236 208.266 16.1446 209.409 14.4766C210.537 12.8034 212.123 11.4898 213.977 10.6926C215.488 10.0565 217.124 9.77589 218.761 9.87243C219.86 9.92846 220.94 10.1844 221.948 10.6278C222.217 10.7521 222.477 10.8964 222.725 11.0595C222.827 11.1044 222.922 11.1651 223.005 11.2393Z" fill="#263238"/>
<path d="M223.336 39.3897C223.451 39.3201 223.571 39.2599 223.696 39.2098C224.056 39.0473 224.429 38.915 224.811 38.8141C225.417 38.6352 226.043 38.5289 226.674 38.4976C227.533 38.4514 228.393 38.5812 229.2 38.8789C231.041 39.5264 232.732 41.404 233.566 43.9147C233.966 45.2621 233.966 46.6967 233.566 48.0441C233.123 49.5065 232.327 50.8379 231.25 51.9217L231.293 51.7275C232.25 54.3533 233.293 57.2022 234.372 60.1733L234.437 60.3532L234.257 60.4179L232.609 60.9647L229.012 62.1661L228.833 62.2236L228.775 62.0438C227.789 59.0654 226.71 56.2885 225.897 53.562L226.056 53.6843C224.649 53.5674 223.308 53.0396 222.2 52.1663C221.197 51.3938 220.374 50.4117 219.79 49.2887C219.262 48.2928 219 47.178 219.027 46.0514C219.06 44.8999 219.348 43.7701 219.869 42.7428C220.39 41.7154 221.132 40.8161 222.041 40.1091C222.416 39.8052 222.836 39.5624 223.286 39.3897C222.88 39.6308 222.486 39.8925 222.106 40.1738C221.107 41.019 220.342 42.1064 219.883 43.332C219.49 44.2562 219.305 45.256 219.344 46.2598C219.383 47.2636 219.643 48.2463 220.106 49.1376C220.681 50.218 221.484 51.1606 222.459 51.9001C223.516 52.7302 224.795 53.2306 226.135 53.339H226.257L226.293 53.4469C227.084 56.1231 228.171 58.9215 229.171 61.9143L228.933 61.7992L232.53 60.5978L234.171 60.0438L234.056 60.2884C232.984 57.3173 231.948 54.4612 230.998 51.8354V51.7275L231.084 51.6412C232.13 50.6022 232.91 49.3264 233.358 47.9218C233.739 46.633 233.739 45.2611 233.358 43.9723C232.574 41.5551 230.955 39.7206 229.2 39.0731C228.423 38.7735 227.593 38.634 226.761 38.6631C226.139 38.6773 225.521 38.7618 224.919 38.9149C223.847 39.181 223.344 39.4256 223.336 39.3897Z" fill="#263238"/>
<path d="M201.099 247.111L129.238 246.78C125.088 246.757 121.117 245.088 118.196 242.14C115.276 239.191 113.646 235.204 113.663 231.054L114.425 50.9073C114.434 48.8513 114.847 46.8171 115.642 44.921C116.438 43.0249 117.599 41.3041 119.059 39.857C120.52 38.4098 122.251 37.2647 124.154 36.4871C126.058 35.7095 128.096 35.3146 130.152 35.325L202.006 35.6559C206.156 35.6769 210.128 37.344 213.049 40.2913C215.971 43.2386 217.603 47.225 217.588 51.3749L216.826 231.514C216.817 233.571 216.404 235.606 215.609 237.503C214.814 239.4 213.653 241.121 212.193 242.57C210.732 244.018 209.001 245.164 207.098 245.944C205.194 246.723 203.156 247.12 201.099 247.111Z" fill="#455A64"/>
<path d="M201.898 41.85H187.97C187.516 41.8584 187.067 41.9563 186.651 42.138C186.234 42.3198 185.857 42.5818 185.542 42.9091C185.227 43.2365 184.979 43.6228 184.813 44.0459C184.647 44.469 184.566 44.9207 184.575 45.3751V47.9002C184.583 48.3543 184.502 48.8056 184.336 49.2283C184.17 49.651 183.922 50.0368 183.607 50.3636C183.291 50.6904 182.914 50.9517 182.498 51.1327C182.081 51.3136 181.633 51.4106 181.179 51.4181L154.029 51.2958C153.11 51.2713 152.239 50.8833 151.606 50.217C150.974 49.5506 150.631 48.6605 150.655 47.742V45.2168C150.678 44.2995 150.337 43.4104 149.705 42.7443C149.074 42.0782 148.205 41.6893 147.288 41.663H142.389L130.195 41.6054C127.294 41.5882 124.505 42.7209 122.438 44.7555C120.371 46.7902 119.195 49.561 119.166 52.4613L118.447 228.299C118.44 229.737 118.717 231.163 119.261 232.495C119.806 233.827 120.607 235.039 121.62 236.061C122.633 237.083 123.837 237.895 125.164 238.452C126.491 239.009 127.914 239.299 129.353 239.305L201.063 239.636C202.503 239.643 203.93 239.366 205.263 238.821C206.596 238.276 207.808 237.474 208.831 236.461C209.853 235.447 210.667 234.242 211.224 232.915C211.781 231.587 212.071 230.163 212.077 228.723L212.797 52.8857C212.814 49.9773 211.676 47.181 209.632 45.1116C207.588 43.0422 204.806 41.869 201.898 41.85Z" fill="white"/>
<path d="M192.251 216.177L138.928 215.946C138.374 215.946 137.928 215.342 137.936 214.608L137.993 200.659C137.993 199.94 138.446 199.321 139 199.321L192.323 199.565C192.63 199.618 192.904 199.788 193.089 200.039C193.274 200.289 193.355 200.602 193.315 200.911L193.265 214.846C193.265 215.587 192.805 216.184 192.251 216.177Z" fill="#4CAF4F"/>
<path d="M155.14 209.499C154.846 209.499 154.563 209.452 154.291 209.358C154.023 209.26 153.816 209.135 153.669 208.984L153.833 208.662C153.972 208.798 154.159 208.913 154.393 209.007C154.631 209.097 154.88 209.143 155.14 209.143C155.389 209.143 155.591 209.113 155.746 209.052C155.904 208.988 156.019 208.903 156.091 208.798C156.167 208.692 156.204 208.575 156.204 208.447C156.204 208.292 156.159 208.167 156.069 208.073C155.982 207.979 155.867 207.905 155.723 207.852C155.58 207.796 155.421 207.747 155.248 207.705C155.074 207.664 154.901 207.62 154.727 207.575C154.554 207.526 154.393 207.462 154.246 207.383C154.103 207.303 153.986 207.2 153.895 207.071C153.808 206.939 153.765 206.767 153.765 206.556C153.765 206.36 153.816 206.181 153.918 206.018C154.023 205.852 154.184 205.72 154.399 205.622C154.614 205.52 154.889 205.469 155.225 205.469C155.448 205.469 155.669 205.502 155.887 205.566C156.106 205.626 156.295 205.711 156.453 205.82L156.312 206.154C156.142 206.041 155.961 205.958 155.769 205.905C155.58 205.852 155.397 205.826 155.22 205.826C154.982 205.826 154.786 205.858 154.631 205.922C154.476 205.986 154.361 206.073 154.286 206.183C154.214 206.288 154.178 206.409 154.178 206.545C154.178 206.7 154.222 206.824 154.308 206.918C154.399 207.013 154.516 207.086 154.659 207.139C154.806 207.192 154.967 207.239 155.14 207.281C155.314 207.322 155.486 207.367 155.655 207.416C155.829 207.466 155.987 207.53 156.131 207.609C156.278 207.684 156.395 207.786 156.482 207.915C156.572 208.043 156.618 208.211 156.618 208.418C156.618 208.611 156.565 208.79 156.459 208.956C156.353 209.118 156.191 209.25 155.972 209.352C155.757 209.45 155.48 209.499 155.14 209.499ZM157.53 209.465V205.503H157.949V209.465H157.53ZM159.238 209.465V205.503H159.583L162.317 208.945H162.136V205.503H162.549V209.465H162.204L159.476 206.024H159.657V209.465H159.238ZM165.58 209.499C165.278 209.499 164.999 209.45 164.742 209.352C164.489 209.25 164.269 209.109 164.08 208.928C163.895 208.747 163.75 208.533 163.644 208.288C163.542 208.043 163.491 207.775 163.491 207.484C163.491 207.194 163.542 206.926 163.644 206.681C163.75 206.435 163.897 206.222 164.086 206.041C164.274 205.86 164.495 205.72 164.748 205.622C165.004 205.52 165.284 205.469 165.586 205.469C165.887 205.469 166.163 205.517 166.412 205.611C166.665 205.705 166.88 205.849 167.057 206.041L166.797 206.307C166.631 206.141 166.448 206.022 166.248 205.951C166.048 205.879 165.833 205.843 165.603 205.843C165.357 205.843 165.131 205.885 164.923 205.968C164.72 206.047 164.54 206.162 164.386 206.313C164.235 206.46 164.116 206.634 164.029 206.834C163.946 207.03 163.905 207.247 163.905 207.484C163.905 207.718 163.946 207.935 164.029 208.135C164.116 208.335 164.235 208.511 164.386 208.662C164.54 208.809 164.72 208.924 164.923 209.007C165.131 209.086 165.355 209.126 165.597 209.126C165.823 209.126 166.036 209.092 166.236 209.024C166.44 208.956 166.627 208.841 166.797 208.679L167.034 208.996C166.846 209.162 166.625 209.288 166.372 209.375C166.119 209.458 165.855 209.499 165.58 209.499ZM166.633 208.945V207.484H167.034V208.996L166.633 208.945ZM171.297 209.499C170.792 209.499 170.394 209.354 170.103 209.064C169.813 208.773 169.667 208.343 169.667 207.773V205.503H170.086V207.756C170.086 208.224 170.192 208.569 170.403 208.792C170.614 209.014 170.912 209.126 171.297 209.126C171.686 209.126 171.986 209.014 172.197 208.792C172.409 208.569 172.514 208.224 172.514 207.756V205.503H172.922V207.773C172.922 208.343 172.776 208.773 172.486 209.064C172.199 209.354 171.803 209.499 171.297 209.499ZM174.184 209.465V205.503H175.667C176.003 205.503 176.291 205.558 176.533 205.668C176.774 205.773 176.959 205.928 177.087 206.132C177.219 206.332 177.285 206.575 177.285 206.862C177.285 207.141 177.219 207.383 177.087 207.586C176.959 207.786 176.774 207.941 176.533 208.05C176.291 208.16 176.003 208.215 175.667 208.215H174.416L174.603 208.016V209.465H174.184ZM174.603 208.05L174.416 207.847H175.655C176.052 207.847 176.352 207.762 176.555 207.592C176.763 207.418 176.867 207.175 176.867 206.862C176.867 206.545 176.763 206.3 176.555 206.126C176.352 205.952 176.052 205.866 175.655 205.866H174.416L174.603 205.668V208.05Z" fill="#E8E8E3"/>
<path d="M149.564 93.5395L131.061 93.4555L131.046 96.8511L149.549 96.935L149.564 93.5395Z" fill="#4CAF4F"/>
<path opacity="0.1" d="M149.564 93.5395L131.061 93.4555L131.046 96.8511L149.549 96.935L149.564 93.5395Z" fill="black"/>
<path d="M203.804 114.388C203.95 114.373 204.092 114.339 204.229 114.287C204.428 114.209 204.601 114.077 204.728 113.905C204.856 113.733 204.932 113.529 204.948 113.316C204.948 112.172 204.948 110.503 204.948 108.359C204.948 107.287 204.948 106.086 204.948 104.762C204.948 104.438 204.948 104.1 204.948 103.762C204.995 103.434 204.924 103.1 204.747 102.82C204.648 102.685 204.519 102.576 204.37 102.5C204.222 102.423 204.058 102.383 203.891 102.381H202.768H192.373L132.202 102.158C132.048 102.155 131.895 102.19 131.758 102.259C131.62 102.328 131.501 102.429 131.411 102.554C131.237 102.835 131.17 103.17 131.223 103.496C131.223 104.215 131.223 104.935 131.223 105.654C131.223 107.093 131.223 108.532 131.223 109.971C131.223 110.69 131.223 111.409 131.223 112.129C131.194 112.464 131.194 112.801 131.223 113.136C131.261 113.28 131.331 113.413 131.429 113.525C131.526 113.637 131.648 113.726 131.785 113.783C131.926 113.84 132.078 113.867 132.231 113.863H135.892L151.87 113.949L178.92 114.114L197.157 114.258L202.114 114.316H203.401C203.696 114.316 203.84 114.316 203.84 114.316H203.401H202.114H197.157H178.92L151.87 114.229L135.892 114.165H132.231C132.029 114.173 131.828 114.139 131.641 114.064C131.451 113.983 131.283 113.86 131.148 113.704C131.014 113.548 130.916 113.364 130.864 113.165C130.822 112.976 130.808 112.782 130.821 112.589V112.057C130.821 111.337 130.821 110.618 130.821 109.899C130.821 108.46 130.821 107.021 130.821 105.582C130.821 104.863 130.821 104.143 130.821 103.424C130.807 103.232 130.807 103.04 130.821 102.848C130.848 102.637 130.929 102.436 131.058 102.266C131.182 102.092 131.346 101.951 131.537 101.855C131.727 101.758 131.938 101.709 132.151 101.712L192.323 102.043L202.718 102.115H203.84C204.038 102.115 204.233 102.163 204.408 102.254C204.583 102.345 204.734 102.478 204.848 102.64C205.05 102.953 205.132 103.329 205.078 103.697C205.078 104.035 205.078 104.374 205.078 104.697C205.078 106.007 205.078 107.208 205.078 108.294C205.078 110.453 205.027 112.107 205.013 113.258C204.995 113.48 204.915 113.691 204.781 113.868C204.647 114.046 204.466 114.181 204.258 114.258C204.121 114.343 203.965 114.387 203.804 114.388Z" fill="#E0E0E0"/>
<path d="M170.46 105.769H136.619V108.942H170.46V105.769Z" fill="#4CAF4F"/>
<path opacity="0.2" d="M170.46 105.769H136.619V108.942H170.46V105.769Z" fill="white"/>
<path d="M149.438 124.516L130.935 124.432L130.92 127.828L149.422 127.912L149.438 124.516Z" fill="#4CAF4F"/>
<path opacity="0.1" d="M149.438 124.516L130.935 124.432L130.92 127.828L149.422 127.912L149.438 124.516Z" fill="black"/>
<path d="M203.337 145.365C203.482 145.348 203.626 145.321 203.768 145.286C203.969 145.222 204.154 145.116 204.311 144.975C204.467 144.833 204.591 144.66 204.675 144.466C204.788 144.176 204.832 143.863 204.804 143.552C204.804 143.207 204.804 142.833 204.804 142.416C204.804 141.581 204.804 140.632 204.804 139.538V134.97C204.839 134.639 204.766 134.306 204.596 134.02C204.418 133.727 204.139 133.509 203.812 133.409C203.453 133.345 203.088 133.326 202.725 133.351H192.373L132.411 133.128C132.088 133.129 131.777 133.247 131.535 133.46C131.292 133.673 131.136 133.967 131.094 134.287C131.094 134.97 131.094 135.725 131.094 136.445C131.094 137.884 131.094 139.322 131.094 140.761C131.094 141.481 131.094 142.2 131.094 142.919C131.067 143.256 131.082 143.594 131.137 143.927C131.227 144.218 131.412 144.472 131.662 144.646C131.928 144.815 132.24 144.895 132.554 144.876H133.554H135.633L151.554 144.955L178.51 145.121L196.682 145.265L201.625 145.322H196.682H178.51L151.54 145.293L135.619 145.236H132.49C132.101 145.259 131.714 145.155 131.389 144.941C131.062 144.714 130.823 144.381 130.713 143.999C130.648 143.633 130.629 143.261 130.655 142.891C130.655 142.171 130.655 141.452 130.655 140.732C130.655 139.294 130.655 137.855 130.655 136.416C130.655 135.697 130.655 134.977 130.655 134.258C130.708 133.846 130.908 133.468 131.219 133.194C131.531 132.92 131.931 132.769 132.346 132.769L192.308 133.099L202.661 133.179C203.046 133.155 203.433 133.182 203.812 133.258C204.185 133.38 204.501 133.636 204.696 133.977C204.883 134.294 204.963 134.662 204.927 135.028C204.927 135.366 204.927 135.697 204.927 136.027C204.927 137.33 204.927 138.524 204.927 139.625C204.927 140.725 204.927 141.653 204.927 142.502C204.927 142.912 204.927 143.293 204.927 143.646C204.953 143.968 204.901 144.291 204.776 144.588C204.682 144.787 204.547 144.963 204.379 145.104C204.212 145.246 204.016 145.35 203.804 145.409C203.647 145.422 203.489 145.407 203.337 145.365Z" fill="#E0E0E0"/>
<path d="M149.298 156.838L130.796 156.754L130.78 160.15L149.283 160.234L149.298 156.838Z" fill="#4CAF4F"/>
<path opacity="0.1" d="M149.298 156.838L130.796 156.754L130.78 160.15L149.283 160.234L149.298 156.838Z" fill="black"/>
<path d="M203.193 177.674C203.338 177.657 203.482 177.63 203.624 177.595C203.824 177.531 204.009 177.426 204.165 177.286C204.321 177.146 204.446 176.974 204.531 176.782C204.644 176.491 204.688 176.179 204.66 175.868C204.66 175.516 204.66 175.149 204.66 174.724C204.66 173.897 204.66 172.94 204.66 171.847V167.278C204.695 166.948 204.622 166.615 204.452 166.329C204.27 166.041 203.992 165.827 203.668 165.725C203.31 165.658 202.945 165.636 202.581 165.66H192.229L132.267 165.437C131.944 165.438 131.633 165.555 131.391 165.768C131.148 165.982 130.992 166.275 130.95 166.595C130.95 167.314 130.95 168.034 130.95 168.753C130.95 170.192 130.95 171.631 130.95 173.07C130.95 173.789 130.95 174.509 130.95 175.228C130.923 175.562 130.938 175.898 130.993 176.228C131.079 176.521 131.265 176.776 131.518 176.947C131.782 177.12 132.096 177.201 132.41 177.177H135.54L151.46 177.264L178.416 177.429L196.589 177.573L201.531 177.631H196.589H178.416L151.46 177.552L135.54 177.487H132.41C132.021 177.513 131.634 177.409 131.31 177.192C130.982 176.965 130.743 176.632 130.633 176.249C130.569 175.884 130.55 175.512 130.576 175.142C130.576 174.422 130.576 173.703 130.576 172.983C130.576 171.545 130.576 170.106 130.576 168.667C130.576 167.948 130.576 167.228 130.576 166.473C130.627 166.062 130.826 165.684 131.136 165.41C131.446 165.135 131.845 164.984 132.259 164.984L192.222 165.314L202.574 165.394C202.96 165.37 203.347 165.397 203.725 165.473C204.099 165.595 204.414 165.851 204.61 166.192C204.796 166.509 204.877 166.877 204.84 167.242C204.84 167.581 204.84 167.919 204.84 168.242C204.84 169.545 204.84 170.739 204.84 171.84C204.84 172.94 204.84 173.868 204.84 174.717C204.84 175.127 204.84 175.508 204.84 175.861C204.868 176.183 204.816 176.506 204.689 176.803C204.596 177.002 204.461 177.178 204.293 177.319C204.125 177.461 203.929 177.565 203.718 177.624C203.549 177.681 203.369 177.699 203.193 177.674Z" fill="#E0E0E0"/>
<path d="M169.737 137.644L135.897 137.49L135.883 140.663L169.723 140.816L169.737 137.644Z" fill="#4CAF4F"/>
<path opacity="0.2" d="M169.737 137.644L135.897 137.49L135.883 140.663L169.723 140.816L169.737 137.644Z" fill="white"/>
<path d="M138.957 171.804C138.936 172.093 138.83 172.37 138.653 172.6C138.476 172.829 138.235 173.002 137.961 173.097C137.687 173.191 137.39 173.203 137.109 173.13C136.828 173.058 136.575 172.905 136.38 172.69C136.186 172.474 136.058 172.207 136.014 171.92C135.97 171.633 136.011 171.34 136.132 171.076C136.254 170.813 136.45 170.59 136.696 170.437C136.942 170.284 137.228 170.206 137.518 170.214C137.919 170.236 138.295 170.415 138.564 170.713C138.834 171.011 138.975 171.403 138.957 171.804Z" fill="#4CAF4F"/>
<path d="M143.54 171.825C143.554 172.028 143.526 172.231 143.458 172.423C143.39 172.615 143.284 172.79 143.145 172.939C143.006 173.088 142.839 173.206 142.652 173.287C142.466 173.368 142.265 173.41 142.061 173.41C141.858 173.41 141.657 173.368 141.47 173.287C141.284 173.206 141.116 173.088 140.977 172.939C140.839 172.79 140.732 172.615 140.664 172.423C140.596 172.231 140.569 172.028 140.583 171.825C140.569 171.622 140.596 171.419 140.664 171.227C140.732 171.035 140.839 170.86 140.977 170.711C141.116 170.562 141.284 170.444 141.47 170.363C141.657 170.282 141.858 170.24 142.061 170.24C142.265 170.24 142.466 170.282 142.652 170.363C142.839 170.444 143.006 170.562 143.145 170.711C143.284 170.86 143.39 171.035 143.458 171.227C143.526 171.419 143.554 171.622 143.54 171.825Z" fill="#4CAF4F"/>
<path d="M148.13 171.847C148.108 172.136 148.003 172.413 147.826 172.643C147.648 172.873 147.408 173.045 147.133 173.14C146.859 173.234 146.563 173.246 146.282 173.173C146.001 173.101 145.747 172.948 145.553 172.733C145.358 172.518 145.231 172.25 145.187 171.963C145.143 171.676 145.184 171.383 145.305 171.119C145.426 170.856 145.622 170.633 145.868 170.48C146.115 170.327 146.401 170.249 146.691 170.257C147.091 170.281 147.466 170.461 147.735 170.758C148.004 171.055 148.145 171.446 148.13 171.847Z" fill="#4CAF4F"/>
<path d="M152.712 171.868C152.691 172.158 152.585 172.434 152.408 172.664C152.231 172.894 151.99 173.067 151.716 173.161C151.442 173.256 151.145 173.267 150.864 173.195C150.583 173.123 150.33 172.969 150.135 172.754C149.941 172.539 149.813 172.272 149.769 171.985C149.725 171.698 149.766 171.405 149.888 171.141C150.009 170.877 150.205 170.655 150.451 170.502C150.697 170.348 150.983 170.271 151.273 170.278C151.673 170.303 152.048 170.483 152.317 170.78C152.586 171.077 152.728 171.468 152.712 171.868Z" fill="#4CAF4F"/>
<path d="M157.295 171.883C157.275 172.172 157.17 172.45 156.994 172.681C156.818 172.912 156.577 173.086 156.303 173.181C156.029 173.277 155.732 173.289 155.451 173.218C155.169 173.146 154.915 172.993 154.72 172.778C154.524 172.563 154.396 172.296 154.352 172.009C154.307 171.722 154.348 171.428 154.469 171.164C154.59 170.9 154.786 170.677 155.033 170.524C155.279 170.37 155.566 170.292 155.856 170.3C156.255 170.324 156.628 170.503 156.897 170.799C157.166 171.094 157.309 171.483 157.295 171.883Z" fill="#4CAF4F"/>
<path d="M161.884 171.904C161.865 172.193 161.761 172.469 161.587 172.699C161.412 172.929 161.174 173.104 160.902 173.2C160.629 173.297 160.335 173.312 160.054 173.243C159.773 173.174 159.519 173.025 159.322 172.814C159.125 172.602 158.994 172.338 158.945 172.053C158.896 171.768 158.932 171.475 159.048 171.211C159.163 170.946 159.354 170.721 159.596 170.563C159.838 170.405 160.121 170.321 160.41 170.322C160.815 170.337 161.198 170.512 161.474 170.808C161.75 171.105 161.898 171.499 161.884 171.904Z" fill="#4CAF4F"/>
<path d="M166.467 171.926C166.481 172.129 166.454 172.332 166.386 172.524C166.318 172.716 166.211 172.891 166.073 173.04C165.934 173.189 165.766 173.307 165.58 173.388C165.393 173.469 165.192 173.511 164.989 173.511C164.785 173.511 164.584 173.469 164.398 173.388C164.211 173.307 164.044 173.189 163.905 173.04C163.766 172.891 163.66 172.716 163.592 172.524C163.524 172.332 163.496 172.129 163.51 171.926C163.496 171.723 163.524 171.519 163.592 171.328C163.66 171.136 163.766 170.961 163.905 170.812C164.044 170.663 164.211 170.545 164.398 170.464C164.584 170.383 164.785 170.341 164.989 170.341C165.192 170.341 165.393 170.383 165.58 170.464C165.766 170.545 165.934 170.663 166.073 170.812C166.211 170.961 166.318 171.136 166.386 171.328C166.454 171.519 166.481 171.723 166.467 171.926Z" fill="#4CAF4F"/>
<path d="M171.05 171.947C171.03 172.236 170.927 172.512 170.752 172.742C170.577 172.973 170.339 173.147 170.067 173.243C169.795 173.34 169.5 173.355 169.219 173.286C168.938 173.218 168.684 173.068 168.487 172.857C168.29 172.646 168.159 172.381 168.11 172.096C168.062 171.811 168.097 171.519 168.213 171.254C168.329 170.989 168.519 170.764 168.761 170.606C169.003 170.448 169.286 170.364 169.575 170.365C169.98 170.38 170.363 170.555 170.639 170.851C170.916 171.148 171.063 171.542 171.05 171.947Z" fill="#4CAF4F"/>
<path d="M175.632 171.969C175.613 172.259 175.508 172.536 175.332 172.767C175.155 172.998 174.915 173.172 174.641 173.268C174.366 173.363 174.07 173.376 173.788 173.304C173.507 173.232 173.253 173.08 173.057 172.865C172.862 172.65 172.734 172.382 172.689 172.095C172.645 171.808 172.686 171.514 172.807 171.25C172.928 170.986 173.124 170.763 173.37 170.61C173.617 170.456 173.903 170.379 174.194 170.386C174.592 170.41 174.966 170.589 175.235 170.885C175.504 171.181 175.646 171.57 175.632 171.969Z" fill="#4CAF4F"/>
<g opacity="0.2">
<path d="M138.957 171.804C138.936 172.093 138.83 172.37 138.653 172.6C138.476 172.829 138.235 173.002 137.961 173.097C137.687 173.191 137.39 173.203 137.109 173.13C136.828 173.058 136.575 172.905 136.38 172.69C136.186 172.474 136.058 172.207 136.014 171.92C135.97 171.633 136.011 171.34 136.132 171.076C136.254 170.813 136.45 170.59 136.696 170.437C136.942 170.284 137.228 170.206 137.518 170.214C137.919 170.236 138.295 170.415 138.564 170.713C138.834 171.011 138.975 171.403 138.957 171.804Z" fill="white"/>
<path d="M143.54 171.825C143.554 172.028 143.526 172.231 143.458 172.423C143.39 172.615 143.284 172.79 143.145 172.939C143.006 173.088 142.839 173.206 142.652 173.287C142.466 173.368 142.265 173.41 142.061 173.41C141.858 173.41 141.657 173.368 141.47 173.287C141.284 173.206 141.116 173.088 140.977 172.939C140.839 172.79 140.732 172.615 140.664 172.423C140.596 172.231 140.569 172.028 140.583 171.825C140.569 171.622 140.596 171.419 140.664 171.227C140.732 171.035 140.839 170.86 140.977 170.711C141.116 170.562 141.284 170.444 141.47 170.363C141.657 170.282 141.858 170.24 142.061 170.24C142.265 170.24 142.466 170.282 142.652 170.363C142.839 170.444 143.006 170.562 143.145 170.711C143.284 170.86 143.39 171.035 143.458 171.227C143.526 171.419 143.554 171.622 143.54 171.825Z" fill="white"/>
<path d="M148.13 171.847C148.108 172.136 148.003 172.413 147.826 172.643C147.648 172.873 147.408 173.045 147.133 173.14C146.859 173.234 146.563 173.246 146.282 173.173C146.001 173.101 145.747 172.948 145.553 172.733C145.358 172.518 145.231 172.25 145.187 171.963C145.143 171.676 145.184 171.383 145.305 171.119C145.426 170.856 145.622 170.633 145.868 170.48C146.115 170.327 146.401 170.249 146.691 170.257C147.091 170.281 147.466 170.461 147.735 170.758C148.004 171.055 148.145 171.446 148.13 171.847Z" fill="white"/>
<path d="M152.712 171.868C152.691 172.158 152.585 172.434 152.408 172.664C152.231 172.894 151.99 173.067 151.716 173.161C151.442 173.256 151.145 173.267 150.864 173.195C150.583 173.123 150.33 172.969 150.135 172.754C149.941 172.539 149.813 172.272 149.769 171.985C149.725 171.698 149.766 171.405 149.888 171.141C150.009 170.877 150.205 170.655 150.451 170.502C150.697 170.348 150.983 170.271 151.273 170.278C151.673 170.303 152.048 170.483 152.317 170.78C152.586 171.077 152.728 171.468 152.712 171.868Z" fill="white"/>
<path d="M157.295 171.883C157.275 172.172 157.17 172.45 156.994 172.681C156.818 172.912 156.577 173.086 156.303 173.181C156.029 173.277 155.732 173.289 155.451 173.218C155.169 173.146 154.915 172.993 154.72 172.778C154.524 172.563 154.396 172.296 154.352 172.009C154.307 171.722 154.348 171.428 154.469 171.164C154.59 170.9 154.786 170.677 155.033 170.524C155.279 170.37 155.566 170.292 155.856 170.3C156.255 170.324 156.628 170.503 156.897 170.799C157.166 171.094 157.309 171.483 157.295 171.883Z" fill="white"/>
<path d="M161.884 171.904C161.865 172.193 161.761 172.469 161.587 172.699C161.412 172.929 161.174 173.103 160.902 173.2C160.629 173.297 160.335 173.312 160.054 173.243C159.773 173.174 159.519 173.025 159.322 172.814C159.125 172.602 158.994 172.338 158.945 172.053C158.896 171.768 158.932 171.475 159.048 171.211C159.163 170.946 159.354 170.72 159.596 170.563C159.838 170.405 160.121 170.321 160.41 170.322C160.815 170.337 161.198 170.512 161.474 170.808C161.75 171.105 161.898 171.499 161.884 171.904Z" fill="white"/>
<path d="M166.467 171.926C166.481 172.129 166.454 172.332 166.386 172.524C166.318 172.715 166.211 172.891 166.073 173.04C165.934 173.188 165.766 173.307 165.58 173.388C165.393 173.469 165.192 173.511 164.989 173.511C164.785 173.511 164.584 173.469 164.398 173.388C164.211 173.307 164.044 173.188 163.905 173.04C163.766 172.891 163.66 172.715 163.592 172.524C163.524 172.332 163.496 172.129 163.51 171.926C163.496 171.723 163.524 171.519 163.592 171.328C163.66 171.136 163.766 170.961 163.905 170.812C164.044 170.663 164.211 170.545 164.398 170.464C164.584 170.382 164.785 170.341 164.989 170.341C165.192 170.341 165.393 170.382 165.58 170.464C165.766 170.545 165.934 170.663 166.073 170.812C166.211 170.961 166.318 171.136 166.386 171.328C166.454 171.519 166.481 171.723 166.467 171.926Z" fill="white"/>
<path d="M171.05 171.947C171.03 172.236 170.927 172.512 170.752 172.742C170.577 172.973 170.339 173.147 170.067 173.243C169.795 173.34 169.5 173.355 169.219 173.286C168.938 173.218 168.684 173.068 168.487 172.857C168.29 172.646 168.159 172.381 168.11 172.096C168.062 171.811 168.097 171.519 168.213 171.254C168.329 170.989 168.519 170.764 168.761 170.606C169.003 170.448 169.286 170.364 169.575 170.365C169.98 170.38 170.363 170.555 170.639 170.851C170.916 171.148 171.063 171.542 171.05 171.947Z" fill="white"/>
<path d="M175.632 171.969C175.613 172.259 175.508 172.536 175.332 172.767C175.155 172.998 174.915 173.172 174.641 173.267C174.366 173.363 174.07 173.376 173.788 173.304C173.507 173.232 173.253 173.08 173.057 172.865C172.862 172.65 172.734 172.382 172.689 172.095C172.645 171.808 172.686 171.514 172.807 171.25C172.928 170.986 173.124 170.763 173.37 170.61C173.617 170.456 173.903 170.379 174.194 170.386C174.592 170.41 174.966 170.589 175.235 170.885C175.504 171.181 175.646 171.57 175.632 171.969Z" fill="white"/>
</g>
<path d="M169.122 68.1155C169.622 67.8954 170.045 67.5333 170.341 67.0741C170.636 66.6148 170.79 66.0789 170.784 65.5329C170.802 65.1779 170.748 64.8229 170.625 64.4894C170.502 64.1559 170.313 63.851 170.068 63.5932C169.823 63.3353 169.529 63.13 169.202 62.9897C168.876 62.8494 168.524 62.777 168.169 62.777C167.813 62.777 167.461 62.8494 167.135 62.9897C166.808 63.13 166.514 63.3353 166.269 63.5932C166.024 63.851 165.835 64.1559 165.712 64.4894C165.589 64.8229 165.535 65.1779 165.554 65.5329C165.543 66.0843 165.695 66.6267 165.992 67.0915C166.289 67.5563 166.717 67.9226 167.223 68.1443C163.194 68.7486 163.374 73.1226 163.374 73.1226L172.899 73.1658C172.899 73.1658 173.122 68.7126 169.122 68.1155Z" fill="#4CAF4F"/>
<path opacity="0.1" d="M169.122 68.1155C169.622 67.8954 170.045 67.5333 170.341 67.0741C170.636 66.6148 170.79 66.0789 170.784 65.5329C170.802 65.1779 170.748 64.8229 170.625 64.4894C170.502 64.1559 170.313 63.851 170.068 63.5932C169.823 63.3353 169.529 63.13 169.202 62.9897C168.876 62.8494 168.524 62.777 168.169 62.777C167.813 62.777 167.461 62.8494 167.135 62.9897C166.808 63.13 166.514 63.3353 166.269 63.5932C166.024 63.851 165.835 64.1559 165.712 64.4894C165.589 64.8229 165.535 65.1779 165.554 65.5329C165.543 66.0843 165.695 66.6267 165.992 67.0915C166.289 67.5563 166.717 67.9226 167.223 68.1443C163.194 68.7486 163.374 73.1226 163.374 73.1226L172.899 73.1658C172.899 73.1658 173.122 68.7126 169.122 68.1155Z" fill="black"/>
<path d="M184.599 75.9869L150.651 75.8328L150.633 79.8902L184.581 80.0443L184.599 75.9869Z" fill="#4CAF4F"/>
<path opacity="0.2" d="M184.599 75.9869L150.651 75.8328L150.633 79.8902L184.581 80.0443L184.599 75.9869Z" fill="white"/>
<path d="M59.7937 97.0141H59.4555L58.4772 97.086C57.9477 97.1178 57.4212 97.1876 56.9017 97.2947C56.5652 97.3419 56.2314 97.4067 55.9017 97.4889L54.7866 97.7982C52.8887 98.3805 51.098 99.2673 49.4846 100.424C47.3529 101.971 45.5729 103.952 44.2617 106.237C43.491 107.554 42.8777 108.957 42.4344 110.417C41.9686 112.003 41.7004 113.642 41.6359 115.294C41.593 116.162 41.6074 117.032 41.679 117.898C41.679 118.337 41.8013 118.776 41.8589 119.222C41.9073 119.672 41.9915 120.117 42.1107 120.553C42.7576 123.44 44.0702 126.136 45.9437 128.425C47.8173 130.715 50.2 132.535 52.9018 133.74C54.8572 134.584 56.9531 135.054 59.0815 135.128C61.2798 135.249 63.4803 134.934 65.5561 134.2L66.1892 133.963H66.2755L66.3475 134.006L75.4192 138.61L75.153 138.84C74.1818 135.833 73.2466 132.92 72.3401 130.121V130.013L72.4193 129.934C74.6199 127.718 76.2536 125.003 77.1817 122.021C78.0224 119.294 78.2677 116.419 77.9011 113.589C77.5751 111.075 76.7665 108.646 75.5199 106.438C74.4453 104.541 73.0591 102.839 71.4193 101.402C70.0664 100.265 68.569 99.3123 66.9662 98.568C65.7533 98.0449 64.4902 97.6472 63.1965 97.381L61.7576 97.1436L60.7145 97.0644L60.0814 97.0213H59.8656C59.9373 97.0133 60.0097 97.0133 60.0814 97.0213H60.7217L61.7648 97.0644L63.2037 97.2731C64.5135 97.5198 65.7938 97.9032 67.0237 98.4169C68.6541 99.1524 70.1785 100.103 71.556 101.244C73.2259 102.674 74.6415 104.377 75.7429 106.28C77.0249 108.512 77.8583 110.973 78.1961 113.524C78.5931 116.398 78.3648 119.323 77.527 122.1C76.5928 125.144 74.9339 127.916 72.6926 130.179L72.7358 129.992C73.6422 132.79 74.5847 135.704 75.5631 138.704L75.6997 139.143L75.2897 138.934L66.218 134.337H66.3762L65.7288 134.574C63.613 135.319 61.3717 135.641 59.1318 135.524C56.9575 135.441 54.8178 134.953 52.8226 134.085C49.0168 132.455 45.8503 129.622 43.8085 126.021C42.8689 124.357 42.1827 122.563 41.7725 120.697C41.6602 120.249 41.5761 119.795 41.5208 119.337C41.4632 118.884 41.3697 118.438 41.3481 117.992C41.1534 115.432 41.4239 112.858 42.1466 110.395C42.601 108.915 43.2314 107.495 44.0243 106.165C45.3668 103.86 47.1838 101.866 49.3551 100.316C50.9951 99.1565 52.8158 98.2765 54.7434 97.7119L55.8729 97.4241C56.2053 97.347 56.5415 97.287 56.8801 97.2443C57.405 97.1471 57.9364 97.0894 58.47 97.0716L59.4555 97.0357C59.5676 97.0206 59.6806 97.0134 59.7937 97.0141Z" fill="#4CAF4F"/>
<path d="M63.8942 113.791H62.5633L59.6857 109.748V107.093C59.6857 107.093 57.6282 106.963 57.8728 110.438C58.1174 113.913 57.8728 113.028 57.8728 113.028C57.8728 113.028 53.506 113.028 53.1463 113.424C52.7866 113.819 52.765 118.035 52.7147 120.388C52.6871 120.955 52.8498 121.515 53.177 121.979C53.5041 122.443 53.977 122.784 54.5204 122.949C54.6727 122.991 54.83 123.013 54.988 123.013C56.0815 123.013 61.6425 122.129 61.6425 122.129H63.9374L63.8942 113.791Z" fill="#4CAF4F"/>
<path d="M67.6999 113.078L66.8798 122.172H64.6064V113.265L67.6999 113.078Z" fill="#4CAF4F"/>
<path d="M94.8144 298.203V292.052L83.7859 291.973L83.6924 301.275L84.3758 301.325C87.4189 301.52 99.8574 301.807 101.901 301.174C104.174 300.469 94.8144 298.203 94.8144 298.203Z" fill="#4CAF4F"/>
<path d="M102.16 300.599C102.16 300.7 98.0302 300.786 92.944 300.786C87.8578 300.786 83.7284 300.7 83.7284 300.599C83.7284 300.498 87.8578 300.412 92.944 300.412C98.0302 300.412 102.16 300.498 102.16 300.599Z" fill="#263238"/>
<path d="M95.0087 299.462C94.9152 299.412 95.0087 299.088 95.2317 298.743C95.4547 298.397 95.7569 298.254 95.8288 298.326C95.9007 298.397 95.7497 298.671 95.5338 298.966C95.318 299.261 95.1022 299.513 95.0087 299.462Z" fill="#263238"/>
<path d="M95.7137 299.865C95.6129 299.865 95.6633 299.462 95.8791 299.081C96.0949 298.7 96.3827 298.469 96.4618 298.527C96.541 298.584 96.4115 298.908 96.21 299.246C96.0086 299.584 95.8072 299.901 95.7137 299.865Z" fill="#263238"/>
<path d="M87.052 300.57C87.0089 300.57 86.8434 300.441 86.606 300.167C86.3162 299.816 85.9934 299.493 85.642 299.203C85.2964 298.927 84.8848 298.746 84.4478 298.678C84.1097 298.635 83.8938 298.678 83.8722 298.635C83.8507 298.592 84.0593 298.441 84.455 298.412C84.9771 298.401 85.4865 298.574 85.8938 298.901C86.2753 299.212 86.5971 299.59 86.8434 300.016C87.0089 300.333 87.0952 300.541 87.052 300.57Z" fill="#263238"/>
<path d="M95.0446 298.304C95.095 298.39 94.9079 298.606 94.5914 298.721C94.2749 298.836 93.9943 298.793 93.9799 298.721C93.9655 298.649 94.1885 298.498 94.4619 298.397C94.7353 298.297 94.9871 298.218 95.0446 298.304Z" fill="#263238"/>
<path d="M94.8719 297.707C94.8719 297.815 94.5842 297.901 94.2101 297.908C93.836 297.915 93.541 297.829 93.5482 297.728C93.5554 297.628 93.8504 297.534 94.2101 297.527C94.5698 297.52 94.8575 297.606 94.8719 297.707Z" fill="#263238"/>
<path d="M121.972 298.203V292.052L110.944 291.973L110.85 301.182L111.533 301.232C114.576 301.426 127.022 301.807 129.058 301.174C131.331 300.469 121.972 298.203 121.972 298.203Z" fill="#4CAF4F"/>
<path d="M129.317 300.613C129.317 300.714 125.195 300.8 120.101 300.8C115.008 300.8 110.893 300.714 110.893 300.613C110.893 300.513 115.015 300.426 120.101 300.426C125.188 300.426 129.317 300.513 129.317 300.613Z" fill="#263238"/>
<path d="M122.166 299.462C122.08 299.412 122.166 299.088 122.389 298.743C122.612 298.397 122.914 298.254 122.986 298.326C123.058 298.397 122.907 298.671 122.691 298.966C122.476 299.261 122.26 299.513 122.166 299.462Z" fill="#263238"/>
<path d="M122.871 299.865C122.778 299.865 122.821 299.462 123.044 299.081C123.267 298.7 123.547 298.469 123.627 298.527C123.706 298.584 123.569 298.908 123.368 299.246C123.166 299.584 122.972 299.901 122.871 299.865Z" fill="#263238"/>
<path d="M114.21 300.57C114.166 300.57 114.008 300.441 113.764 300.167C113.474 299.816 113.151 299.493 112.8 299.203C112.454 298.927 112.042 298.746 111.605 298.678C111.274 298.635 111.051 298.678 111.03 298.635C111.008 298.592 111.217 298.441 111.613 298.412C112.135 298.401 112.644 298.574 113.051 298.901C113.435 299.21 113.757 299.588 114.001 300.016C114.166 300.333 114.253 300.541 114.21 300.57Z" fill="#263238"/>
<path d="M122.202 298.304C122.253 298.39 122.066 298.606 121.749 298.721C121.432 298.836 121.152 298.793 121.138 298.721C121.123 298.649 121.346 298.498 121.62 298.397C121.893 298.297 122.145 298.218 122.202 298.304Z" fill="#263238"/>
<path d="M122.044 297.707C122.044 297.815 121.756 297.901 121.382 297.908C121.008 297.915 120.72 297.829 120.727 297.728C120.735 297.628 121.022 297.534 121.382 297.527C121.742 297.52 122.044 297.606 122.044 297.707Z" fill="#263238"/>
<path d="M162.604 115.546C162.316 115.251 161.604 115.395 161.604 115.395C161.675 114.981 161.675 114.557 161.604 114.143C161.475 113.74 160.568 113.819 160.568 113.819C160.526 113.48 160.526 113.137 160.568 112.798C160.575 112.723 160.559 112.647 160.522 112.581C160.484 112.516 160.428 112.463 160.359 112.431C159.931 112.256 159.47 112.173 159.007 112.186C158.453 111.791 160.698 108.647 161.532 107.64C162.367 106.633 162.216 105.848 161.475 105.848C160.964 105.848 158.345 108.87 157.539 109.884C156.734 110.899 154.597 113.719 154.525 111.467C154.453 109.215 153.547 107.517 152.978 107.23C152.41 106.942 151.806 107.618 152.115 108.244C152.387 108.955 152.556 109.701 152.619 110.46C152.697 111.064 152.67 111.677 152.54 112.273C152.301 113.38 151.976 114.467 151.568 115.524H151.511C151.511 115.524 135.813 130.582 134.677 131.653C133.662 132.617 113.26 130.51 109.167 130.078C107.776 129.874 106.371 129.778 104.965 129.79C103.188 129.869 102.872 130.121 101.102 130.143C96.6326 130.192 92.1737 130.584 87.7642 131.315C85.7676 131.655 83.9026 132.536 82.3726 133.863C80.8426 135.19 79.7065 136.912 79.0882 138.84C74.966 151.718 65.6281 182.199 63.9806 199.321C62.7357 201.578 61.6119 203.901 60.6138 206.277C59.4556 209.428 59.7361 209.536 60.1246 209.608C61.1749 209.803 62.3692 204.148 62.8152 205.515C63.2612 206.882 60.5491 212.256 61.6498 212.414C63.0886 212.615 64.2324 206.659 64.3691 206.184C64.5058 205.709 65.218 205.86 65.0885 206.306C64.8799 206.939 62.8584 213.651 64.2684 213.867C65.0454 213.982 65.1317 212.565 65.1317 212.565C65.1317 212.565 66.5705 206.141 67.2252 206.27C67.8798 206.4 67.182 210.191 66.8511 211.457C66.5201 212.723 66.9806 213.364 67.6568 213.054C68.1172 212.838 69.2179 208.99 69.5201 207.738C69.8222 206.486 70.5776 203.019 71.5919 205.026C72.6063 207.033 74.1458 208.198 74.7789 208.227C74.9216 208.211 75.056 208.152 75.165 208.058C75.274 207.965 75.3525 207.841 75.3904 207.702C75.4283 207.564 75.4239 207.417 75.3778 207.281C75.3316 207.145 75.2458 207.026 75.1314 206.939C74.5869 206.408 74.1196 205.802 73.743 205.141C73.4074 204.626 73.1639 204.056 73.0236 203.457C72.7337 202.264 72.5649 201.044 72.52 199.817L72.4049 199.098C74.0163 191.12 78.6565 167.703 85.3542 152.746L88.1023 158.401L89.2965 162.588L81.973 180.667L113.21 180.257L108.548 162.315L114.21 143.61C120.332 143.747 136.051 143.977 138.669 142.79C141.964 141.351 159.007 119.826 159.007 119.826C160.118 118.963 161.182 118.041 162.194 117.064C162.194 117.064 163.23 116.193 162.604 115.546Z" fill="#FFBE9D"/>
<path d="M80.5989 167.307C81.5054 164.214 86.1599 148.919 86.1599 148.919C86.1599 148.919 88.4477 161.387 87.8434 162.89C87.2875 164.177 86.6308 165.419 85.8794 166.602C80.5989 174.638 81.2896 178.66 81.2896 178.66L113.195 177.688C113.267 173.228 110.627 162.854 110.08 161.2C109.533 159.545 111.354 154.128 111.354 154.128C111.354 154.128 114.951 150.466 114.821 148.581C114.753 146.888 114.543 145.204 114.195 143.545L133.619 144.265L133.008 131.1L105.109 128.308C104.138 131.049 95.354 129.704 95.354 129.704C85.8722 130.02 85.2823 131.761 81.3399 134.826C77.3976 137.891 70.8726 164.192 70.8726 164.192L80.5989 167.307Z" fill="#4CAF4F"/>
<path d="M99.4617 164.192C98.9088 164.291 98.3456 164.32 97.7855 164.279C96.7423 164.279 95.3107 164.207 93.7352 164.048C92.1597 163.89 90.7353 163.667 89.7209 163.466C89.1616 163.394 88.6132 163.253 88.0879 163.048C88.6503 163.049 89.2115 163.102 89.7641 163.207C90.7857 163.336 92.2029 163.516 93.7712 163.674C95.3395 163.833 96.7639 163.94 97.7927 164.012C98.3534 164.019 98.9123 164.08 99.4617 164.192Z" fill="#263238"/>
<path d="M101.649 161.48C101.096 161.751 100.511 161.952 99.9077 162.077C97.0375 162.831 94.0764 163.182 91.1094 163.12C90.4954 163.14 89.8814 163.082 89.2821 162.948C89.888 162.871 90.4988 162.84 91.1094 162.854C92.2389 162.818 93.7928 162.739 95.505 162.538C97.2172 162.336 98.7423 162.048 99.8214 161.818C100.421 161.658 101.032 161.545 101.649 161.48Z" fill="#263238"/>
<path d="M112.382 149.38C112.368 149.928 112.293 150.473 112.159 151.006C111.972 152.005 111.684 153.372 111.318 154.869C110.951 156.365 110.598 157.746 110.282 158.682C110.154 159.217 109.966 159.736 109.72 160.228C109.761 159.682 109.862 159.141 110.023 158.617C110.296 157.495 110.605 156.2 110.951 154.782C111.296 153.365 111.627 152.07 111.9 150.948C111.998 150.408 112.159 149.881 112.382 149.38Z" fill="#263238"/>
<path d="M80.9371 165.473C79.2727 165.216 77.6302 164.833 76.0235 164.329C74.3817 163.945 72.7707 163.44 71.2035 162.818C72.867 163.079 74.5092 163.462 76.117 163.962C77.7592 164.345 79.3704 164.85 80.9371 165.473Z" fill="#263238"/>
<path d="M114.541 143.387C114.269 143.434 113.992 143.434 113.72 143.387C112.969 143.31 112.231 143.133 111.526 142.862C110.349 142.42 109.278 141.736 108.381 140.855C107.484 139.974 106.781 138.916 106.318 137.747C105.805 136.461 105.587 135.078 105.677 133.697C105.71 132.558 106.05 131.449 106.663 130.488C107.094 129.841 107.738 129.365 108.483 129.143C108.682 129.088 108.888 129.061 109.095 129.064C109.239 129.064 109.31 129.064 109.31 129.064C109.31 129.064 109.008 129.064 108.526 129.258C107.843 129.51 107.263 129.984 106.879 130.603C105.9 132.143 105.627 134.956 106.67 137.581C107.156 138.819 107.916 139.931 108.893 140.833C109.694 141.571 110.617 142.165 111.62 142.588C112.561 142.961 113.541 143.228 114.541 143.387Z" fill="#263238"/>
<path d="M131.31 144.006C131.13 141.8 131.072 139.585 131.137 137.373C131.081 135.162 131.148 132.95 131.339 130.747C131.519 132.951 131.576 135.163 131.511 137.373C131.572 139.586 131.504 141.8 131.31 144.006Z" fill="#263238"/>
<path d="M104.922 129.114C105.001 127.51 105.167 125.697 105.167 125.697C105.167 125.697 109.138 125.258 109.375 121.157C109.613 117.057 109.375 107.597 109.375 107.597L102.181 103.913L94.1957 110.194L95.4259 130.697L102.749 131.164C103.309 131.18 103.852 130.973 104.26 130.588C104.667 130.204 104.905 129.674 104.922 129.114Z" fill="#FFBE9D"/>
<path d="M105.634 117.913C105.634 117.913 105.634 117.992 105.569 118.085C105.516 118.153 105.447 118.207 105.368 118.242C105.289 118.277 105.202 118.293 105.116 118.287C104.656 118.287 104.21 117.755 104.052 117.136C103.976 116.836 103.976 116.522 104.052 116.222C104.066 116.091 104.114 115.966 104.189 115.858C104.264 115.75 104.365 115.663 104.483 115.604C104.58 115.564 104.689 115.564 104.785 115.604C104.857 115.639 104.915 115.697 104.951 115.769C105.001 115.891 104.951 115.97 104.951 115.963C104.951 115.956 104.951 115.891 104.879 115.819C104.841 115.768 104.786 115.732 104.724 115.719C104.661 115.705 104.596 115.716 104.541 115.747C104.452 115.801 104.379 115.876 104.328 115.965C104.276 116.054 104.248 116.155 104.246 116.258C104.185 116.526 104.185 116.804 104.246 117.071C104.39 117.632 104.778 118.085 105.123 118.129C105.191 118.138 105.26 118.133 105.325 118.114C105.391 118.096 105.452 118.064 105.505 118.021C105.591 117.963 105.62 117.906 105.634 117.913Z" fill="#EB996E"/>
<path d="M111.843 105.381C111.289 103.496 109.282 102.561 107.454 102.043C104.67 101.251 101.663 100.906 98.9438 101.906C96.2245 102.906 92.9584 104.661 92.9584 107.661C91.3541 107.532 90.4333 108.935 89.8002 110.676C89.3954 111.736 89.1529 112.852 89.0808 113.985C88.8793 117.913 87.7787 123.337 85.232 126.215C83.7932 127.819 81.8004 128.927 80.9803 130.927C80.2609 132.661 80.635 134.718 79.9659 136.474C79.3688 138.02 78.0523 139.121 77.0883 140.466C76.1062 141.992 75.5282 143.743 75.4086 145.554C75.2891 147.365 75.6319 149.176 76.4049 150.818C77.1834 152.418 78.2795 153.843 79.6263 155.006C80.9732 156.168 82.5427 157.044 84.2392 157.581C87.5996 158.603 91.183 158.638 94.5627 157.682C97.0991 157.075 99.4652 155.902 101.483 154.25C103.548 152.564 104.967 150.215 105.498 147.603C106.008 144.668 105.188 141.682 104.577 138.761C102.663 129.531 103.21 129.049 105.627 120.481C105.685 120.33 105.713 120.172 105.757 120.021C105.8 119.87 105.821 119.798 105.85 119.683C105.919 119.344 105.955 118.999 105.958 118.654C105.605 118.785 105.222 118.813 104.853 118.734C104.485 118.655 104.147 118.472 103.879 118.208C103.61 117.926 103.423 117.576 103.337 117.196C103.251 116.816 103.269 116.42 103.39 116.05C103.56 115.644 103.812 115.28 104.132 114.978C104.452 114.677 104.831 114.447 105.246 114.301C106.044 113.971 106.9 113.798 107.685 113.431C109.346 112.64 110.498 110.999 111.282 109.28C111.926 108.088 112.125 106.706 111.843 105.381Z" fill="#263238"/>
<path d="M105.922 118.107C106.074 118.332 106.2 118.573 106.296 118.826C106.512 119.28 106.8 119.92 107.116 120.661L107.174 120.798H107.023L106.303 120.862C105.807 120.862 105.39 120.956 104.9 120.949C104.858 120.939 104.818 120.919 104.786 120.89C104.753 120.861 104.728 120.824 104.713 120.783C104.692 120.718 104.692 120.647 104.713 120.582C104.73 120.485 104.752 120.389 104.778 120.294L104.908 119.783C104.973 119.443 105.074 119.11 105.21 118.791C105.196 119.138 105.146 119.483 105.059 119.819L104.958 120.33C104.922 120.503 104.857 120.769 104.958 120.747C105.318 120.747 105.829 120.668 106.303 120.639L107.023 120.575L106.929 120.733C106.62 120.014 106.361 119.337 106.21 118.87C106.077 118.631 105.98 118.374 105.922 118.107Z" fill="#4CAF4F"/>
<path d="M81.2896 178.659L113.195 177.688L127.08 231.888L124.526 294.059H107.656L109.72 233.212L97.3827 195.479L99.2819 296.469L82.232 296.721L80.4407 201.796C80.3615 199.155 79.4982 193.206 79.822 190.587L81.2896 178.659Z" fill="#263238"/>
<path d="M101.627 196.249C101.105 196.282 100.581 196.25 100.066 196.155C99.1021 196.04 97.7856 195.839 96.3396 195.551C94.8936 195.263 93.5986 194.932 92.6634 194.666C92.1635 194.556 91.6799 194.382 91.2246 194.148C91.2246 194.04 93.5699 194.602 96.4475 195.184C99.3251 195.767 101.642 196.141 101.627 196.249Z" fill="#455A64"/>
<path d="M124.353 290.649C124.353 290.75 120.533 290.837 115.821 290.837C111.109 290.837 107.282 290.75 107.282 290.649C107.282 290.549 111.102 290.462 115.821 290.462C120.54 290.462 124.353 290.542 124.353 290.649Z" fill="#455A64"/>
<path d="M99.1308 293.844C99.1308 293.951 95.4187 294.031 90.8432 294.031C86.2678 294.031 82.5629 293.951 82.5629 293.844C82.5629 293.736 86.275 293.656 90.8432 293.656C95.4115 293.656 99.1308 293.743 99.1308 293.844Z" fill="#455A64"/>
<path d="M96.9294 293.585C96.8287 293.585 96.3827 271.52 95.9294 244.305C95.4762 217.09 95.21 195.012 95.3035 195.012C95.3971 195.012 95.8575 217.069 96.3035 244.298C96.7496 271.528 97.0373 293.585 96.9294 293.585Z" fill="#455A64"/>
<path d="M122.087 290.649C122.079 290.551 122.079 290.453 122.087 290.354V289.491C122.087 288.714 122.145 287.599 122.188 286.182C122.288 283.304 122.432 279.125 122.612 274.002C123.001 263.701 123.547 249.499 124.145 233.824C124.145 233.672 124.145 233.529 124.145 233.399V233.449C120.368 218.342 116.95 204.63 114.469 194.709L111.591 182.976C111.26 181.602 111.008 180.53 110.828 179.782C110.742 179.429 110.684 179.156 110.634 178.947C110.606 178.854 110.589 178.757 110.584 178.659C110.621 178.75 110.65 178.844 110.67 178.94C110.728 179.141 110.8 179.415 110.9 179.76C111.095 180.48 111.375 181.573 111.735 182.94C112.454 185.717 113.469 189.717 114.735 194.645C117.238 204.558 120.691 218.234 124.519 233.363V233.413C124.519 233.543 124.519 233.694 124.519 233.838C123.878 249.514 123.296 263.708 122.871 274.01C122.648 279.139 122.461 283.29 122.332 286.182C122.26 287.621 122.202 288.714 122.166 289.491C122.166 289.858 122.123 290.146 122.116 290.354C122.117 290.454 122.107 290.552 122.087 290.649Z" fill="#455A64"/>
<path d="M116.584 232.133C115.372 232.531 114.124 232.808 112.857 232.96C111.303 233.226 109.98 233.413 109.382 233.442V233.298C109.577 233.356 109.677 233.392 109.677 233.421C109.677 233.449 109.555 233.421 109.354 233.421H108.922L109.354 233.291C109.915 233.126 111.238 232.852 112.792 232.572C114.039 232.301 115.309 232.154 116.584 232.133Z" fill="#455A64"/>
<path d="M116.289 234.198C115.166 234.249 114.042 234.198 112.929 234.047C111.805 234.024 110.686 233.901 109.584 233.68C111.832 233.496 114.095 233.671 116.289 234.198Z" fill="#455A64"/>
<path opacity="0.2" d="M81.1528 179.803C81.5307 180.289 82.0066 180.689 82.5496 180.977C83.0925 181.266 83.6903 181.437 84.3038 181.48C85.5888 181.632 86.8886 181.608 88.167 181.408C96.4042 180.494 105.131 179.652 113.195 177.688C102.757 178.271 91.7281 178.077 81.2895 178.659L81.1816 179.552" fill="black"/>
<g opacity="0.2">
<path d="M91.908 194.515L97.7927 217.349L97.3826 195.479L91.908 194.515Z" fill="black"/>
</g>
</svg>
