<svg width="24" height="23" viewBox="0 0 24 23" fill="none" xmlns="http://www.w3.org/2000/svg">
<g id="Social Icons">
<path id="BG" opacity="0.1" fill-rule="evenodd" clip-rule="evenodd" d="M0.85144 11.7743C0.85144 5.62346 5.8377 0.637207 11.9886 0.637207C18.1394 0.637207 23.1257 5.62346 23.1257 11.7743C23.1257 17.9252 18.1394 22.9114 11.9886 22.9114C5.8377 22.9114 0.85144 17.9252 0.85144 11.7743Z" fill="white"/>
<path id="Path" fill-rule="evenodd" clip-rule="evenodd" d="M11.9892 5.83447C10.376 5.83447 10.1736 5.84153 9.53998 5.87036C8.90763 5.89932 8.476 5.99943 8.09833 6.14632C7.70766 6.29803 7.37626 6.50097 7.04611 6.83125C6.7157 7.16141 6.51276 7.49281 6.36055 7.88335C6.21329 8.26115 6.11305 8.6929 6.08459 9.325C6.05625 9.95859 6.04883 10.1612 6.04883 11.7743C6.04883 13.3875 6.05601 13.5893 6.08471 14.2229C6.1138 14.8553 6.21391 15.2869 6.36067 15.6646C6.51251 16.0552 6.71545 16.3866 7.04573 16.7168C7.37577 17.0472 7.70716 17.2506 8.09758 17.4023C8.47551 17.5492 8.90726 17.6493 9.53948 17.6783C10.1731 17.7071 10.3754 17.7142 11.9884 17.7142C13.6017 17.7142 13.8036 17.7071 14.4371 17.6783C15.0695 17.6493 15.5016 17.5492 15.8795 17.4023C16.2701 17.2506 16.601 17.0472 16.931 16.7168C17.2614 16.3866 17.4644 16.0552 17.6166 15.6647C17.7626 15.2869 17.8628 14.8551 17.8925 14.223C17.921 13.5894 17.9284 13.3875 17.9284 11.7743C17.9284 10.1612 17.921 9.95871 17.8925 9.32513C17.8628 8.69278 17.7626 8.26115 17.6166 7.88348C17.4644 7.49281 17.2614 7.16141 16.931 6.83125C16.6006 6.50085 16.2702 6.29791 15.8792 6.14632C15.5005 5.99943 15.0686 5.89932 14.4363 5.87036C13.8027 5.84153 13.601 5.83447 11.9873 5.83447H11.9892ZM11.4563 6.90487C11.6144 6.90462 11.7909 6.90487 11.9892 6.90487C13.5751 6.90487 13.7631 6.91056 14.3893 6.93902C14.9685 6.9655 15.2828 7.06227 15.4922 7.14358C15.7694 7.25124 15.967 7.37993 16.1748 7.58783C16.3827 7.79572 16.5114 7.99372 16.6193 8.27091C16.7006 8.48004 16.7975 8.79436 16.8238 9.3735C16.8523 9.99966 16.8585 10.1878 16.8585 11.773C16.8585 13.3581 16.8523 13.5462 16.8238 14.1724C16.7973 14.7515 16.7006 15.0659 16.6193 15.275C16.5116 15.5522 16.3827 15.7496 16.1748 15.9573C15.9669 16.1652 15.7695 16.2939 15.4922 16.4016C15.283 16.4833 14.9685 16.5798 14.3893 16.6063C13.7632 16.6347 13.5751 16.6409 11.9892 16.6409C10.4031 16.6409 10.2151 16.6347 9.58896 16.6063C9.00982 16.5795 8.6955 16.4828 8.486 16.4015C8.20881 16.2938 8.01081 16.1651 7.80292 15.9572C7.59502 15.7493 7.46632 15.5518 7.35842 15.2745C7.27712 15.0654 7.18022 14.751 7.15386 14.1719C7.1254 13.5457 7.11971 13.3577 7.11971 11.7715C7.11971 10.1853 7.1254 9.99817 7.15386 9.37201C7.18035 8.79287 7.27712 8.47856 7.35842 8.26918C7.46608 7.99198 7.59502 7.79399 7.80292 7.58609C8.01081 7.3782 8.20881 7.2495 8.486 7.1416C8.69538 7.05992 9.00982 6.9634 9.58896 6.93679C10.1369 6.91204 10.3493 6.90462 11.4563 6.90338V6.90487ZM15.1598 7.89113C14.7663 7.89113 14.447 8.21003 14.447 8.60367C14.447 8.99718 14.7663 9.31645 15.1598 9.31645C15.5533 9.31645 15.8726 8.99718 15.8726 8.60367C15.8726 8.21015 15.5533 7.89113 15.1598 7.89113ZM11.9892 8.72395C10.3046 8.72395 8.93882 10.0897 8.93882 11.7743C8.93882 13.4589 10.3046 14.8241 11.9892 14.8241C13.6738 14.8241 15.0391 13.4589 15.0391 11.7743C15.0391 10.0897 13.6738 8.72395 11.9892 8.72395ZM11.9892 9.79436C13.0826 9.79436 13.9691 10.6808 13.9691 11.7743C13.9691 12.8677 13.0826 13.7543 11.9892 13.7543C10.8956 13.7543 10.0092 12.8677 10.0092 11.7743C10.0092 10.6808 10.8956 9.79436 11.9892 9.79436Z" fill="white"/>
</g>
</svg>
