<svg width="14" height="13" viewBox="0 0 14 13" fill="none" xmlns="http://www.w3.org/2000/svg">
<g id="Essential Icons / send" clip-path="url(#clip0_406_231)">
<path id="Vector" fill-rule="evenodd" clip-rule="evenodd" d="M12.4608 0.766934C12.6026 0.908743 12.6506 1.11925 12.5844 1.30854L8.93002 11.7496C8.8593 11.9516 8.67243 12.09 8.45855 12.0987C8.24468 12.1075 8.04715 11.9848 7.96021 11.7891L5.95355 7.27416L1.43857 5.2675C1.24297 5.18057 1.12025 4.98304 1.12898 4.76916C1.1377 4.55529 1.2761 4.36841 1.47813 4.2977L11.9192 0.643337C12.1085 0.577086 12.319 0.625125 12.4608 0.766934ZM6.97174 6.99427L8.37953 10.1618L10.8432 3.12285L6.97174 6.99427ZM10.1049 2.38455L3.06592 4.84819L6.23345 6.25598L10.1049 2.38455Z" fill="white"/>
</g>
<defs>
<clipPath id="clip0_406_231">
<rect width="12.5293" height="12.5293" fill="white" transform="translate(0.606506 0.092041)"/>
</clipPath>
</defs>
</svg>
