<svg width="23" height="23" viewBox="0 0 23 23" fill="none" xmlns="http://www.w3.org/2000/svg">
<g id="Social Icons">
<path id="BG" opacity="0.1" fill-rule="evenodd" clip-rule="evenodd" d="M0.674072 11.7743C0.674072 5.62346 5.66033 0.637207 11.8112 0.637207C17.962 0.637207 22.9483 5.62346 22.9483 11.7743C22.9483 17.9252 17.962 22.9114 11.8112 22.9114C5.66033 22.9114 0.674072 17.9252 0.674072 11.7743Z" fill="white"/>
<path id="Path" fill-rule="evenodd" clip-rule="evenodd" d="M11.4777 9.68957L11.501 10.0749L11.1115 10.0278C9.69373 9.84687 8.45509 9.23342 7.40341 8.20315L6.88926 7.69195L6.75683 8.06945C6.47638 8.91097 6.65556 9.79968 7.23982 10.3974C7.55143 10.7277 7.48131 10.7749 6.94379 10.5783C6.75683 10.5154 6.59323 10.4682 6.57765 10.4918C6.52312 10.5468 6.71009 11.2625 6.8581 11.5456C7.06064 11.9389 7.47352 12.3242 7.92535 12.5523L8.30707 12.7332L7.85524 12.7411C7.41899 12.7411 7.40341 12.7489 7.45015 12.9141C7.60596 13.4253 8.22138 13.968 8.90692 14.2039L9.38991 14.3691L8.96924 14.6207C8.34602 14.9825 7.61375 15.187 6.88147 15.2027C6.53091 15.2106 6.24268 15.242 6.24268 15.2656C6.24268 15.3443 7.19308 15.7847 7.74618 15.9577C9.40549 16.4689 11.3764 16.2487 12.8565 15.3757C13.9082 14.7544 14.9599 13.5197 15.4507 12.3242C15.7155 11.6872 15.9804 10.5232 15.9804 9.96484C15.9804 9.60306 16.0038 9.55588 16.44 9.12332C16.6971 8.87165 16.9386 8.59638 16.9853 8.51774C17.0632 8.36831 17.0554 8.36831 16.6581 8.50201C15.996 8.73795 15.9025 8.70649 16.2297 8.35258C16.4712 8.10091 16.7594 7.64476 16.7594 7.51106C16.7594 7.48747 16.6426 7.52679 16.5101 7.59757C16.3699 7.67622 16.0583 7.79419 15.8246 7.86497L15.4039 7.99867L15.0222 7.73913C14.8119 7.59757 14.5158 7.44028 14.36 7.39309C13.9627 7.28298 13.3551 7.29871 12.9968 7.42455C12.023 7.77846 11.4076 8.69076 11.4777 9.68957Z" fill="white"/>
</g>
</svg>
